ISO-10303-21;
HEADER;
/* Generated by software containing ST-Developer
 * from STEP Tools, Inc. (www.steptools.com) 
 */
/* OPTION: using custom renumber hook */

FILE_DESCRIPTION(
/* description */ ('STEP AP242 Edition 2',
'CAx-IF Rec.Pracs.---Representation and Presentation of Product Manufa
cturing Information (PMI)---4.0---2014-10-13',
'CAx-IF Rec.Pracs.---3D Tessellated Geometry---0.4---2014-09-14','2;1',
'CAx-IF Rec.Pracs.---User Defined Attributes---1.5---2016-08-15'),
/* implementation_level */ '2;1');

FILE_NAME(
/* name */ 'Active_Speaker_Back_Baffle - Part_18',
/* time_stamp */ '2026-07-31T10:27:25Z',
/* author */ (''),
/* organization */ (''),
/* preprocessor_version */ 'ST-DEVELOPER v20',
/* originating_system */ 'ONSHAPE BY PTC INC, 1.218',
/* authorisation */ '  ');

FILE_SCHEMA (('AP242_MANAGED_MODEL_BASED_3D_ENGINEERING_MIM_LF { 1 0 10303 442 3 1 4 }'));
ENDSEC;

DATA;
#10=SHAPE_REPRESENTATION_RELATIONSHIP('','',#533,#11);
#11=ADVANCED_BREP_SHAPE_REPRESENTATION('',(#531),#863);
#12=CIRCLE('',#544,0.0015);
#13=CIRCLE('',#545,0.0015);
#14=CIRCLE('',#547,0.0015);
#15=CIRCLE('',#548,0.0015);
#16=CIRCLE('',#550,0.0015);
#17=CIRCLE('',#551,0.0015);
#18=CIRCLE('',#553,0.0015);
#19=CIRCLE('',#554,0.0015);
#20=CIRCLE('',#556,0.0015);
#21=CIRCLE('',#557,0.0015);
#22=CIRCLE('',#559,0.00125);
#23=CIRCLE('',#560,0.00125);
#24=CIRCLE('',#562,0.00125);
#25=CIRCLE('',#563,0.00125);
#26=CIRCLE('',#565,0.00125);
#27=CIRCLE('',#566,0.00125);
#28=CIRCLE('',#568,0.00125);
#29=CIRCLE('',#569,0.00125);
#30=CIRCLE('',#571,0.0015);
#31=CIRCLE('',#572,0.0015);
#32=CIRCLE('',#575,0.008);
#33=CIRCLE('',#576,0.0035);
#34=CIRCLE('',#582,0.0035);
#35=CIRCLE('',#584,0.008);
#36=CYLINDRICAL_SURFACE('',#543,0.0015);
#37=CYLINDRICAL_SURFACE('',#546,0.0015);
#38=CYLINDRICAL_SURFACE('',#549,0.0015);
#39=CYLINDRICAL_SURFACE('',#552,0.0015);
#40=CYLINDRICAL_SURFACE('',#555,0.0015);
#41=CYLINDRICAL_SURFACE('',#558,0.00125);
#42=CYLINDRICAL_SURFACE('',#561,0.00125);
#43=CYLINDRICAL_SURFACE('',#564,0.00125);
#44=CYLINDRICAL_SURFACE('',#567,0.00125);
#45=CYLINDRICAL_SURFACE('',#570,0.0015);
#46=CYLINDRICAL_SURFACE('',#581,0.0035);
#47=CYLINDRICAL_SURFACE('',#583,0.008);
#48=ORIENTED_EDGE('',*,*,#168,.T.);
#49=ORIENTED_EDGE('',*,*,#169,.F.);
#50=ORIENTED_EDGE('',*,*,#170,.F.);
#51=ORIENTED_EDGE('',*,*,#171,.T.);
#52=ORIENTED_EDGE('',*,*,#172,.T.);
#53=ORIENTED_EDGE('',*,*,#173,.F.);
#54=ORIENTED_EDGE('',*,*,#174,.F.);
#55=ORIENTED_EDGE('',*,*,#169,.T.);
#56=ORIENTED_EDGE('',*,*,#175,.T.);
#57=ORIENTED_EDGE('',*,*,#176,.F.);
#58=ORIENTED_EDGE('',*,*,#177,.F.);
#59=ORIENTED_EDGE('',*,*,#173,.T.);
#60=ORIENTED_EDGE('',*,*,#178,.F.);
#61=ORIENTED_EDGE('',*,*,#179,.F.);
#62=ORIENTED_EDGE('',*,*,#180,.T.);
#63=ORIENTED_EDGE('',*,*,#181,.T.);
#64=ORIENTED_EDGE('',*,*,#182,.F.);
#65=ORIENTED_EDGE('',*,*,#183,.F.);
#66=ORIENTED_EDGE('',*,*,#184,.T.);
#67=ORIENTED_EDGE('',*,*,#179,.T.);
#68=ORIENTED_EDGE('',*,*,#185,.F.);
#69=ORIENTED_EDGE('',*,*,#186,.F.);
#70=ORIENTED_EDGE('',*,*,#187,.T.);
#71=ORIENTED_EDGE('',*,*,#183,.T.);
#72=ORIENTED_EDGE('',*,*,#188,.T.);
#73=ORIENTED_EDGE('',*,*,#171,.F.);
#74=ORIENTED_EDGE('',*,*,#189,.F.);
#75=ORIENTED_EDGE('',*,*,#176,.T.);
#76=ORIENTED_EDGE('',*,*,#190,.F.);
#77=ORIENTED_EDGE('',*,*,#181,.F.);
#78=ORIENTED_EDGE('',*,*,#191,.T.);
#79=ORIENTED_EDGE('',*,*,#186,.T.);
#80=ORIENTED_EDGE('',*,*,#192,.F.);
#81=ORIENTED_EDGE('',*,*,#193,.T.);
#82=ORIENTED_EDGE('',*,*,#194,.F.);
#83=ORIENTED_EDGE('',*,*,#195,.T.);
#84=ORIENTED_EDGE('',*,*,#196,.F.);
#85=ORIENTED_EDGE('',*,*,#197,.T.);
#86=ORIENTED_EDGE('',*,*,#198,.F.);
#87=ORIENTED_EDGE('',*,*,#199,.T.);
#88=ORIENTED_EDGE('',*,*,#200,.F.);
#89=ORIENTED_EDGE('',*,*,#201,.T.);
#90=ORIENTED_EDGE('',*,*,#202,.F.);
#91=ORIENTED_EDGE('',*,*,#203,.T.);
#92=ORIENTED_EDGE('',*,*,#204,.F.);
#93=ORIENTED_EDGE('',*,*,#205,.T.);
#94=ORIENTED_EDGE('',*,*,#206,.F.);
#95=ORIENTED_EDGE('',*,*,#207,.T.);
#96=ORIENTED_EDGE('',*,*,#208,.F.);
#97=ORIENTED_EDGE('',*,*,#209,.T.);
#98=ORIENTED_EDGE('',*,*,#210,.F.);
#99=ORIENTED_EDGE('',*,*,#211,.T.);
#100=ORIENTED_EDGE('',*,*,#209,.F.);
#101=ORIENTED_EDGE('',*,*,#207,.F.);
#102=ORIENTED_EDGE('',*,*,#205,.F.);
#103=ORIENTED_EDGE('',*,*,#203,.F.);
#104=ORIENTED_EDGE('',*,*,#201,.F.);
#105=ORIENTED_EDGE('',*,*,#199,.F.);
#106=ORIENTED_EDGE('',*,*,#197,.F.);
#107=ORIENTED_EDGE('',*,*,#195,.F.);
#108=ORIENTED_EDGE('',*,*,#193,.F.);
#109=ORIENTED_EDGE('',*,*,#180,.F.);
#110=ORIENTED_EDGE('',*,*,#184,.F.);
#111=ORIENTED_EDGE('',*,*,#187,.F.);
#112=ORIENTED_EDGE('',*,*,#191,.F.);
#113=ORIENTED_EDGE('',*,*,#170,.T.);
#114=ORIENTED_EDGE('',*,*,#174,.T.);
#115=ORIENTED_EDGE('',*,*,#177,.T.);
#116=ORIENTED_EDGE('',*,*,#189,.T.);
#117=ORIENTED_EDGE('',*,*,#211,.F.);
#118=ORIENTED_EDGE('',*,*,#208,.T.);
#119=ORIENTED_EDGE('',*,*,#206,.T.);
#120=ORIENTED_EDGE('',*,*,#204,.T.);
#121=ORIENTED_EDGE('',*,*,#202,.T.);
#122=ORIENTED_EDGE('',*,*,#200,.T.);
#123=ORIENTED_EDGE('',*,*,#198,.T.);
#124=ORIENTED_EDGE('',*,*,#196,.T.);
#125=ORIENTED_EDGE('',*,*,#194,.T.);
#126=ORIENTED_EDGE('',*,*,#192,.T.);
#127=ORIENTED_EDGE('',*,*,#168,.F.);
#128=ORIENTED_EDGE('',*,*,#188,.F.);
#129=ORIENTED_EDGE('',*,*,#175,.F.);
#130=ORIENTED_EDGE('',*,*,#172,.F.);
#131=ORIENTED_EDGE('',*,*,#210,.T.);
#132=ORIENTED_EDGE('',*,*,#212,.T.);
#133=ORIENTED_EDGE('',*,*,#213,.T.);
#134=ORIENTED_EDGE('',*,*,#214,.T.);
#135=ORIENTED_EDGE('',*,*,#215,.T.);
#136=ORIENTED_EDGE('',*,*,#216,.T.);
#137=ORIENTED_EDGE('',*,*,#217,.T.);
#138=ORIENTED_EDGE('',*,*,#214,.F.);
#139=ORIENTED_EDGE('',*,*,#218,.F.);
#140=ORIENTED_EDGE('',*,*,#219,.T.);
#141=ORIENTED_EDGE('',*,*,#220,.T.);
#142=ORIENTED_EDGE('',*,*,#217,.F.);
#143=ORIENTED_EDGE('',*,*,#221,.F.);
#144=ORIENTED_EDGE('',*,*,#222,.T.);
#145=ORIENTED_EDGE('',*,*,#218,.T.);
#146=ORIENTED_EDGE('',*,*,#216,.F.);
#147=ORIENTED_EDGE('',*,*,#223,.F.);
#148=ORIENTED_EDGE('',*,*,#224,.T.);
#149=ORIENTED_EDGE('',*,*,#221,.T.);
#150=ORIENTED_EDGE('',*,*,#215,.F.);
#151=ORIENTED_EDGE('',*,*,#220,.F.);
#152=ORIENTED_EDGE('',*,*,#225,.T.);
#153=ORIENTED_EDGE('',*,*,#223,.T.);
#154=ORIENTED_EDGE('',*,*,#213,.F.);
#155=ORIENTED_EDGE('',*,*,#226,.T.);
#156=ORIENTED_EDGE('',*,*,#212,.F.);
#157=ORIENTED_EDGE('',*,*,#227,.T.);
#158=ORIENTED_EDGE('',*,*,#227,.F.);
#159=ORIENTED_EDGE('',*,*,#226,.F.);
#160=ORIENTED_EDGE('',*,*,#219,.F.);
#161=ORIENTED_EDGE('',*,*,#222,.F.);
#162=ORIENTED_EDGE('',*,*,#224,.F.);
#163=ORIENTED_EDGE('',*,*,#225,.F.);
#164=ORIENTED_EDGE('',*,*,#182,.T.);
#165=ORIENTED_EDGE('',*,*,#178,.T.);
#166=ORIENTED_EDGE('',*,*,#190,.T.);
#167=ORIENTED_EDGE('',*,*,#185,.T.);
#168=EDGE_CURVE('',#228,#229,#276,.F.);
#169=EDGE_CURVE('',#230,#229,#277,.F.);
#170=EDGE_CURVE('',#231,#230,#278,.F.);
#171=EDGE_CURVE('',#231,#228,#279,.F.);
#172=EDGE_CURVE('',#229,#232,#280,.F.);
#173=EDGE_CURVE('',#233,#232,#281,.F.);
#174=EDGE_CURVE('',#230,#233,#282,.T.);
#175=EDGE_CURVE('',#232,#234,#283,.F.);
#176=EDGE_CURVE('',#235,#234,#284,.F.);
#177=EDGE_CURVE('',#233,#235,#285,.T.);
#178=EDGE_CURVE('',#236,#237,#286,.T.);
#179=EDGE_CURVE('',#238,#236,#287,.F.);
#180=EDGE_CURVE('',#238,#239,#288,.F.);
#181=EDGE_CURVE('',#239,#237,#289,.F.);
#182=EDGE_CURVE('',#240,#236,#290,.F.);
#183=EDGE_CURVE('',#241,#240,#291,.F.);
#184=EDGE_CURVE('',#241,#238,#292,.F.);
#185=EDGE_CURVE('',#242,#240,#293,.F.);
#186=EDGE_CURVE('',#243,#242,#294,.F.);
#187=EDGE_CURVE('',#243,#241,#295,.F.);
#188=EDGE_CURVE('',#234,#228,#296,.F.);
#189=EDGE_CURVE('',#235,#231,#297,.F.);
#190=EDGE_CURVE('',#237,#242,#298,.T.);
#191=EDGE_CURVE('',#239,#243,#299,.F.);
#192=EDGE_CURVE('',#244,#244,#12,.F.);
#193=EDGE_CURVE('',#245,#245,#13,.F.);
#194=EDGE_CURVE('',#246,#246,#14,.F.);
#195=EDGE_CURVE('',#247,#247,#15,.F.);
#196=EDGE_CURVE('',#248,#248,#16,.F.);
#197=EDGE_CURVE('',#249,#249,#17,.F.);
#198=EDGE_CURVE('',#250,#250,#18,.F.);
#199=EDGE_CURVE('',#251,#251,#19,.F.);
#200=EDGE_CURVE('',#252,#252,#20,.F.);
#201=EDGE_CURVE('',#253,#253,#21,.F.);
#202=EDGE_CURVE('',#254,#254,#22,.F.);
#203=EDGE_CURVE('',#255,#255,#23,.F.);
#204=EDGE_CURVE('',#256,#256,#24,.F.);
#205=EDGE_CURVE('',#257,#257,#25,.F.);
#206=EDGE_CURVE('',#258,#258,#26,.F.);
#207=EDGE_CURVE('',#259,#259,#27,.F.);
#208=EDGE_CURVE('',#260,#260,#28,.F.);
#209=EDGE_CURVE('',#261,#261,#29,.F.);
#210=EDGE_CURVE('',#262,#262,#30,.F.);
#211=EDGE_CURVE('',#263,#263,#31,.F.);
#212=EDGE_CURVE('',#264,#264,#32,.F.);
#213=EDGE_CURVE('',#265,#265,#33,.F.);
#214=EDGE_CURVE('',#266,#267,#300,.T.);
#215=EDGE_CURVE('',#267,#268,#301,.T.);
#216=EDGE_CURVE('',#268,#269,#302,.F.);
#217=EDGE_CURVE('',#269,#266,#303,.F.);
#218=EDGE_CURVE('',#270,#266,#304,.F.);
#219=EDGE_CURVE('',#270,#271,#305,.F.);
#220=EDGE_CURVE('',#271,#267,#306,.F.);
#221=EDGE_CURVE('',#272,#269,#307,.F.);
#222=EDGE_CURVE('',#272,#270,#308,.F.);
#223=EDGE_CURVE('',#273,#268,#309,.F.);
#224=EDGE_CURVE('',#273,#272,#310,.F.);
#225=EDGE_CURVE('',#271,#273,#311,.F.);
#226=EDGE_CURVE('',#274,#274,#34,.F.);
#227=EDGE_CURVE('',#275,#275,#35,.F.);
#228=VERTEX_POINT('',#729);
#229=VERTEX_POINT('',#730);
#230=VERTEX_POINT('',#732);
#231=VERTEX_POINT('',#734);
#232=VERTEX_POINT('',#738);
#233=VERTEX_POINT('',#740);
#234=VERTEX_POINT('',#744);
#235=VERTEX_POINT('',#746);
#236=VERTEX_POINT('',#750);
#237=VERTEX_POINT('',#751);
#238=VERTEX_POINT('',#753);
#239=VERTEX_POINT('',#755);
#240=VERTEX_POINT('',#759);
#241=VERTEX_POINT('',#761);
#242=VERTEX_POINT('',#765);
#243=VERTEX_POINT('',#767);
#244=VERTEX_POINT('',#777);
#245=VERTEX_POINT('',#779);
#246=VERTEX_POINT('',#782);
#247=VERTEX_POINT('',#784);
#248=VERTEX_POINT('',#787);
#249=VERTEX_POINT('',#789);
#250=VERTEX_POINT('',#792);
#251=VERTEX_POINT('',#794);
#252=VERTEX_POINT('',#797);
#253=VERTEX_POINT('',#799);
#254=VERTEX_POINT('',#802);
#255=VERTEX_POINT('',#804);
#256=VERTEX_POINT('',#807);
#257=VERTEX_POINT('',#809);
#258=VERTEX_POINT('',#812);
#259=VERTEX_POINT('',#814);
#260=VERTEX_POINT('',#817);
#261=VERTEX_POINT('',#819);
#262=VERTEX_POINT('',#822);
#263=VERTEX_POINT('',#824);
#264=VERTEX_POINT('',#828);
#265=VERTEX_POINT('',#830);
#266=VERTEX_POINT('',#832);
#267=VERTEX_POINT('',#833);
#268=VERTEX_POINT('',#835);
#269=VERTEX_POINT('',#837);
#270=VERTEX_POINT('',#841);
#271=VERTEX_POINT('',#843);
#272=VERTEX_POINT('',#847);
#273=VERTEX_POINT('',#851);
#274=VERTEX_POINT('',#857);
#275=VERTEX_POINT('',#860);
#276=LINE('',#728,#312);
#277=LINE('',#731,#313);
#278=LINE('',#733,#314);
#279=LINE('',#735,#315);
#280=LINE('',#737,#316);
#281=LINE('',#739,#317);
#282=LINE('',#741,#318);
#283=LINE('',#743,#319);
#284=LINE('',#745,#320);
#285=LINE('',#747,#321);
#286=LINE('',#749,#322);
#287=LINE('',#752,#323);
#288=LINE('',#754,#324);
#289=LINE('',#756,#325);
#290=LINE('',#758,#326);
#291=LINE('',#760,#327);
#292=LINE('',#762,#328);
#293=LINE('',#764,#329);
#294=LINE('',#766,#330);
#295=LINE('',#768,#331);
#296=LINE('',#770,#332);
#297=LINE('',#771,#333);
#298=LINE('',#773,#334);
#299=LINE('',#774,#335);
#300=LINE('',#831,#336);
#301=LINE('',#834,#337);
#302=LINE('',#836,#338);
#303=LINE('',#838,#339);
#304=LINE('',#840,#340);
#305=LINE('',#842,#341);
#306=LINE('',#844,#342);
#307=LINE('',#846,#343);
#308=LINE('',#848,#344);
#309=LINE('',#850,#345);
#310=LINE('',#852,#346);
#311=LINE('',#854,#347);
#312=VECTOR('',#590,1.);
#313=VECTOR('',#591,1.);
#314=VECTOR('',#592,1.);
#315=VECTOR('',#593,1.);
#316=VECTOR('',#596,1.);
#317=VECTOR('',#597,1.);
#318=VECTOR('',#598,1.);
#319=VECTOR('',#601,1.);
#320=VECTOR('',#602,1.);
#321=VECTOR('',#603,1.);
#322=VECTOR('',#606,1.);
#323=VECTOR('',#607,1.);
#324=VECTOR('',#608,1.);
#325=VECTOR('',#609,1.);
#326=VECTOR('',#612,1.);
#327=VECTOR('',#613,1.);
#328=VECTOR('',#614,1.);
#329=VECTOR('',#617,1.);
#330=VECTOR('',#618,1.);
#331=VECTOR('',#619,1.);
#332=VECTOR('',#622,1.);
#333=VECTOR('',#623,1.);
#334=VECTOR('',#626,1.);
#335=VECTOR('',#627,1.);
#336=VECTOR('',#696,1.);
#337=VECTOR('',#697,1.);
#338=VECTOR('',#698,1.);
#339=VECTOR('',#699,1.);
#340=VECTOR('',#702,1.);
#341=VECTOR('',#703,1.);
#342=VECTOR('',#704,1.);
#343=VECTOR('',#707,1.);
#344=VECTOR('',#708,1.);
#345=VECTOR('',#711,1.);
#346=VECTOR('',#712,1.);
#347=VECTOR('',#715,1.);
#348=EDGE_LOOP('',(#48,#49,#50,#51));
#349=EDGE_LOOP('',(#52,#53,#54,#55));
#350=EDGE_LOOP('',(#56,#57,#58,#59));
#351=EDGE_LOOP('',(#60,#61,#62,#63));
#352=EDGE_LOOP('',(#64,#65,#66,#67));
#353=EDGE_LOOP('',(#68,#69,#70,#71));
#354=EDGE_LOOP('',(#72,#73,#74,#75));
#355=EDGE_LOOP('',(#76,#77,#78,#79));
#356=EDGE_LOOP('',(#80));
#357=EDGE_LOOP('',(#81));
#358=EDGE_LOOP('',(#82));
#359=EDGE_LOOP('',(#83));
#360=EDGE_LOOP('',(#84));
#361=EDGE_LOOP('',(#85));
#362=EDGE_LOOP('',(#86));
#363=EDGE_LOOP('',(#87));
#364=EDGE_LOOP('',(#88));
#365=EDGE_LOOP('',(#89));
#366=EDGE_LOOP('',(#90));
#367=EDGE_LOOP('',(#91));
#368=EDGE_LOOP('',(#92));
#369=EDGE_LOOP('',(#93));
#370=EDGE_LOOP('',(#94));
#371=EDGE_LOOP('',(#95));
#372=EDGE_LOOP('',(#96));
#373=EDGE_LOOP('',(#97));
#374=EDGE_LOOP('',(#98));
#375=EDGE_LOOP('',(#99));
#376=EDGE_LOOP('',(#100));
#377=EDGE_LOOP('',(#101));
#378=EDGE_LOOP('',(#102));
#379=EDGE_LOOP('',(#103));
#380=EDGE_LOOP('',(#104));
#381=EDGE_LOOP('',(#105));
#382=EDGE_LOOP('',(#106));
#383=EDGE_LOOP('',(#107));
#384=EDGE_LOOP('',(#108));
#385=EDGE_LOOP('',(#109,#110,#111,#112));
#386=EDGE_LOOP('',(#113,#114,#115,#116));
#387=EDGE_LOOP('',(#117));
#388=EDGE_LOOP('',(#118));
#389=EDGE_LOOP('',(#119));
#390=EDGE_LOOP('',(#120));
#391=EDGE_LOOP('',(#121));
#392=EDGE_LOOP('',(#122));
#393=EDGE_LOOP('',(#123));
#394=EDGE_LOOP('',(#124));
#395=EDGE_LOOP('',(#125));
#396=EDGE_LOOP('',(#126));
#397=EDGE_LOOP('',(#127,#128,#129,#130));
#398=EDGE_LOOP('',(#131));
#399=EDGE_LOOP('',(#132));
#400=EDGE_LOOP('',(#133));
#401=EDGE_LOOP('',(#134,#135,#136,#137));
#402=EDGE_LOOP('',(#138,#139,#140,#141));
#403=EDGE_LOOP('',(#142,#143,#144,#145));
#404=EDGE_LOOP('',(#146,#147,#148,#149));
#405=EDGE_LOOP('',(#150,#151,#152,#153));
#406=EDGE_LOOP('',(#154));
#407=EDGE_LOOP('',(#155));
#408=EDGE_LOOP('',(#156));
#409=EDGE_LOOP('',(#157));
#410=EDGE_LOOP('',(#158));
#411=EDGE_LOOP('',(#159));
#412=EDGE_LOOP('',(#160,#161,#162,#163));
#413=EDGE_LOOP('',(#164,#165,#166,#167));
#414=FACE_BOUND('',#348,.T.);
#415=FACE_BOUND('',#349,.T.);
#416=FACE_BOUND('',#350,.T.);
#417=FACE_BOUND('',#351,.T.);
#418=FACE_BOUND('',#352,.T.);
#419=FACE_BOUND('',#353,.T.);
#420=FACE_BOUND('',#354,.T.);
#421=FACE_BOUND('',#355,.T.);
#422=FACE_BOUND('',#356,.T.);
#423=FACE_BOUND('',#357,.T.);
#424=FACE_BOUND('',#358,.T.);
#425=FACE_BOUND('',#359,.T.);
#426=FACE_BOUND('',#360,.T.);
#427=FACE_BOUND('',#361,.T.);
#428=FACE_BOUND('',#362,.T.);
#429=FACE_BOUND('',#363,.T.);
#430=FACE_BOUND('',#364,.T.);
#431=FACE_BOUND('',#365,.T.);
#432=FACE_BOUND('',#366,.T.);
#433=FACE_BOUND('',#367,.T.);
#434=FACE_BOUND('',#368,.T.);
#435=FACE_BOUND('',#369,.T.);
#436=FACE_BOUND('',#370,.T.);
#437=FACE_BOUND('',#371,.T.);
#438=FACE_BOUND('',#372,.T.);
#439=FACE_BOUND('',#373,.T.);
#440=FACE_BOUND('',#374,.T.);
#441=FACE_BOUND('',#375,.T.);
#442=FACE_BOUND('',#376,.T.);
#443=FACE_BOUND('',#377,.T.);
#444=FACE_BOUND('',#378,.T.);
#445=FACE_BOUND('',#379,.T.);
#446=FACE_BOUND('',#380,.T.);
#447=FACE_BOUND('',#381,.T.);
#448=FACE_BOUND('',#382,.T.);
#449=FACE_BOUND('',#383,.T.);
#450=FACE_BOUND('',#384,.T.);
#451=FACE_BOUND('',#385,.T.);
#452=FACE_BOUND('',#386,.T.);
#453=FACE_BOUND('',#387,.T.);
#454=FACE_BOUND('',#388,.T.);
#455=FACE_BOUND('',#389,.T.);
#456=FACE_BOUND('',#390,.T.);
#457=FACE_BOUND('',#391,.T.);
#458=FACE_BOUND('',#392,.T.);
#459=FACE_BOUND('',#393,.T.);
#460=FACE_BOUND('',#394,.T.);
#461=FACE_BOUND('',#395,.T.);
#462=FACE_BOUND('',#396,.T.);
#463=FACE_BOUND('',#397,.T.);
#464=FACE_BOUND('',#398,.T.);
#465=FACE_BOUND('',#399,.T.);
#466=FACE_BOUND('',#400,.T.);
#467=FACE_BOUND('',#401,.T.);
#468=FACE_BOUND('',#402,.T.);
#469=FACE_BOUND('',#403,.T.);
#470=FACE_BOUND('',#404,.T.);
#471=FACE_BOUND('',#405,.T.);
#472=FACE_BOUND('',#406,.T.);
#473=FACE_BOUND('',#407,.T.);
#474=FACE_BOUND('',#408,.T.);
#475=FACE_BOUND('',#409,.T.);
#476=FACE_BOUND('',#410,.T.);
#477=FACE_BOUND('',#411,.T.);
#478=FACE_BOUND('',#412,.T.);
#479=FACE_BOUND('',#413,.T.);
#480=PLANE('',#535);
#481=PLANE('',#536);
#482=PLANE('',#537);
#483=PLANE('',#538);
#484=PLANE('',#539);
#485=PLANE('',#540);
#486=PLANE('',#541);
#487=PLANE('',#542);
#488=PLANE('',#573);
#489=PLANE('',#574);
#490=PLANE('',#577);
#491=PLANE('',#578);
#492=PLANE('',#579);
#493=PLANE('',#580);
#494=PLANE('',#585);
#495=ADVANCED_FACE('',(#414),#480,.F.);
#496=ADVANCED_FACE('',(#415),#481,.F.);
#497=ADVANCED_FACE('',(#416),#482,.F.);
#498=ADVANCED_FACE('',(#417),#483,.T.);
#499=ADVANCED_FACE('',(#418),#484,.T.);
#500=ADVANCED_FACE('',(#419),#485,.T.);
#501=ADVANCED_FACE('',(#420),#486,.F.);
#502=ADVANCED_FACE('',(#421),#487,.T.);
#503=ADVANCED_FACE('',(#422,#423),#36,.F.);
#504=ADVANCED_FACE('',(#424,#425),#37,.F.);
#505=ADVANCED_FACE('',(#426,#427),#38,.F.);
#506=ADVANCED_FACE('',(#428,#429),#39,.F.);
#507=ADVANCED_FACE('',(#430,#431),#40,.F.);
#508=ADVANCED_FACE('',(#432,#433),#41,.F.);
#509=ADVANCED_FACE('',(#434,#435),#42,.F.);
#510=ADVANCED_FACE('',(#436,#437),#43,.F.);
#511=ADVANCED_FACE('',(#438,#439),#44,.F.);
#512=ADVANCED_FACE('',(#440,#441),#45,.F.);
#513=ADVANCED_FACE('',(#442,#443,#444,#445,#446,#447,#448,#449,#450,#451,
#452,#453),#488,.T.);
#514=ADVANCED_FACE('',(#454,#455,#456,#457,#458,#459,#460,#461,#462,#463,
#464,#465,#466,#467),#489,.F.);
#515=ADVANCED_FACE('',(#468),#490,.T.);
#516=ADVANCED_FACE('',(#469),#491,.T.);
#517=ADVANCED_FACE('',(#470),#492,.T.);
#518=ADVANCED_FACE('',(#471),#493,.T.);
#519=ADVANCED_FACE('',(#472,#473),#46,.F.);
#520=ADVANCED_FACE('',(#474,#475),#47,.F.);
#521=ADVANCED_FACE('',(#476,#477,#478,#479),#494,.T.);
#522=CLOSED_SHELL('',(#495,#496,#497,#498,#499,#500,#501,#502,#503,#504,
#505,#506,#507,#508,#509,#510,#511,#512,#513,#514,#515,#516,#517,#518,#519,
#520,#521));
#523=STYLED_ITEM('',(#524),#531);
#524=PRESENTATION_STYLE_ASSIGNMENT((#525));
#525=SURFACE_STYLE_USAGE(.BOTH.,#526);
#526=SURFACE_SIDE_STYLE('',(#527));
#527=SURFACE_STYLE_FILL_AREA(#528);
#528=FILL_AREA_STYLE('',(#529));
#529=FILL_AREA_STYLE_COLOUR('',#530);
#530=COLOUR_RGB('',0.764705882352941,0.690196078431373,0.568627450980392);
#531=MANIFOLD_SOLID_BREP('Part_18',#522);
#532=SHAPE_DEFINITION_REPRESENTATION(#868,#533);
#533=SHAPE_REPRESENTATION('Part_18',(#534),#863);
#534=AXIS2_PLACEMENT_3D('',#726,#586,#587);
#535=AXIS2_PLACEMENT_3D('',#727,#588,#589);
#536=AXIS2_PLACEMENT_3D('',#736,#594,#595);
#537=AXIS2_PLACEMENT_3D('',#742,#599,#600);
#538=AXIS2_PLACEMENT_3D('',#748,#604,#605);
#539=AXIS2_PLACEMENT_3D('',#757,#610,#611);
#540=AXIS2_PLACEMENT_3D('',#763,#615,#616);
#541=AXIS2_PLACEMENT_3D('',#769,#620,#621);
#542=AXIS2_PLACEMENT_3D('',#772,#624,#625);
#543=AXIS2_PLACEMENT_3D('',#775,#628,#629);
#544=AXIS2_PLACEMENT_3D('',#776,#630,#631);
#545=AXIS2_PLACEMENT_3D('',#778,#632,#633);
#546=AXIS2_PLACEMENT_3D('',#780,#634,#635);
#547=AXIS2_PLACEMENT_3D('',#781,#636,#637);
#548=AXIS2_PLACEMENT_3D('',#783,#638,#639);
#549=AXIS2_PLACEMENT_3D('',#785,#640,#641);
#550=AXIS2_PLACEMENT_3D('',#786,#642,#643);
#551=AXIS2_PLACEMENT_3D('',#788,#644,#645);
#552=AXIS2_PLACEMENT_3D('',#790,#646,#647);
#553=AXIS2_PLACEMENT_3D('',#791,#648,#649);
#554=AXIS2_PLACEMENT_3D('',#793,#650,#651);
#555=AXIS2_PLACEMENT_3D('',#795,#652,#653);
#556=AXIS2_PLACEMENT_3D('',#796,#654,#655);
#557=AXIS2_PLACEMENT_3D('',#798,#656,#657);
#558=AXIS2_PLACEMENT_3D('',#800,#658,#659);
#559=AXIS2_PLACEMENT_3D('',#801,#660,#661);
#560=AXIS2_PLACEMENT_3D('',#803,#662,#663);
#561=AXIS2_PLACEMENT_3D('',#805,#664,#665);
#562=AXIS2_PLACEMENT_3D('',#806,#666,#667);
#563=AXIS2_PLACEMENT_3D('',#808,#668,#669);
#564=AXIS2_PLACEMENT_3D('',#810,#670,#671);
#565=AXIS2_PLACEMENT_3D('',#811,#672,#673);
#566=AXIS2_PLACEMENT_3D('',#813,#674,#675);
#567=AXIS2_PLACEMENT_3D('',#815,#676,#677);
#568=AXIS2_PLACEMENT_3D('',#816,#678,#679);
#569=AXIS2_PLACEMENT_3D('',#818,#680,#681);
#570=AXIS2_PLACEMENT_3D('',#820,#682,#683);
#571=AXIS2_PLACEMENT_3D('',#821,#684,#685);
#572=AXIS2_PLACEMENT_3D('',#823,#686,#687);
#573=AXIS2_PLACEMENT_3D('',#825,#688,#689);
#574=AXIS2_PLACEMENT_3D('',#826,#690,#691);
#575=AXIS2_PLACEMENT_3D('',#827,#692,#693);
#576=AXIS2_PLACEMENT_3D('',#829,#694,#695);
#577=AXIS2_PLACEMENT_3D('',#839,#700,#701);
#578=AXIS2_PLACEMENT_3D('',#845,#705,#706);
#579=AXIS2_PLACEMENT_3D('',#849,#709,#710);
#580=AXIS2_PLACEMENT_3D('',#853,#713,#714);
#581=AXIS2_PLACEMENT_3D('',#855,#716,#717);
#582=AXIS2_PLACEMENT_3D('',#856,#718,#719);
#583=AXIS2_PLACEMENT_3D('',#858,#720,#721);
#584=AXIS2_PLACEMENT_3D('',#859,#722,#723);
#585=AXIS2_PLACEMENT_3D('',#861,#724,#725);
#586=DIRECTION('',(0.,0.,1.));
#587=DIRECTION('',(1.,0.,0.));
#588=DIRECTION('',(-1.,0.,0.));
#589=DIRECTION('',(0.,-1.,1.110223024625E-16));
#590=DIRECTION('',(0.,-1.,1.110223024625E-16));
#591=DIRECTION('',(0.,1.110223024625E-16,1.));
#592=DIRECTION('',(0.,-1.,1.110223024625E-16));
#593=DIRECTION('',(0.,1.110223024625E-16,1.));
#594=DIRECTION('',(0.,-1.,1.110223024625E-16));
#595=DIRECTION('',(1.,0.,0.));
#596=DIRECTION('',(1.,0.,0.));
#597=DIRECTION('',(0.,1.110223024625E-16,1.));
#598=DIRECTION('',(-1.,0.,0.));
#599=DIRECTION('',(1.,0.,0.));
#600=DIRECTION('',(0.,1.,-1.110223024625E-16));
#601=DIRECTION('',(0.,1.,-1.110223024625E-16));
#602=DIRECTION('',(0.,1.110223024625E-16,1.));
#603=DIRECTION('',(0.,-1.,1.110223024625E-16));
#604=DIRECTION('',(0.,-1.,1.110223024625E-16));
#605=DIRECTION('',(1.,0.,0.));
#606=DIRECTION('',(-1.,0.,0.));
#607=DIRECTION('',(0.,1.110223024625E-16,1.));
#608=DIRECTION('',(1.,0.,0.));
#609=DIRECTION('',(0.,1.110223024625E-16,1.));
#610=DIRECTION('',(-1.,0.,0.));
#611=DIRECTION('',(0.,-1.,1.110223024625E-16));
#612=DIRECTION('',(0.,-1.,1.110223024625E-16));
#613=DIRECTION('',(0.,1.110223024625E-16,1.));
#614=DIRECTION('',(0.,-1.,1.110223024625E-16));
#615=DIRECTION('',(0.,1.,-1.110223024625E-16));
#616=DIRECTION('',(-1.,0.,0.));
#617=DIRECTION('',(-1.,0.,0.));
#618=DIRECTION('',(0.,1.110223024625E-16,1.));
#619=DIRECTION('',(-1.,0.,0.));
#620=DIRECTION('',(0.,1.,-1.110223024625E-16));
#621=DIRECTION('',(-1.,0.,0.));
#622=DIRECTION('',(-1.,0.,0.));
#623=DIRECTION('',(-1.,0.,0.));
#624=DIRECTION('',(1.,0.,0.));
#625=DIRECTION('',(0.,1.,-1.110223024625E-16));
#626=DIRECTION('',(0.,-1.,1.110223024625E-16));
#627=DIRECTION('',(0.,1.,-1.110223024625E-16));
#628=DIRECTION('',(0.,-1.110223024625E-16,-1.));
#629=DIRECTION('',(0.,1.,-1.110223024625E-16));
#630=DIRECTION('',(0.,-1.110223024625E-16,-1.));
#631=DIRECTION('',(0.,1.,-1.110223024625E-16));
#632=DIRECTION('',(0.,-1.110223024625E-16,-1.));
#633=DIRECTION('',(0.,1.,-1.110223024625E-16));
#634=DIRECTION('',(0.,-1.110223024625E-16,-1.));
#635=DIRECTION('',(0.,1.,-1.110223024625E-16));
#636=DIRECTION('',(0.,-1.110223024625E-16,-1.));
#637=DIRECTION('',(0.,1.,-1.110223024625E-16));
#638=DIRECTION('',(0.,-1.110223024625E-16,-1.));
#639=DIRECTION('',(0.,1.,-1.110223024625E-16));
#640=DIRECTION('',(0.,-1.110223024625E-16,-1.));
#641=DIRECTION('',(0.,1.,-1.110223024625E-16));
#642=DIRECTION('',(0.,-1.110223024625E-16,-1.));
#643=DIRECTION('',(0.,1.,-1.110223024625E-16));
#644=DIRECTION('',(0.,-1.110223024625E-16,-1.));
#645=DIRECTION('',(0.,1.,-1.110223024625E-16));
#646=DIRECTION('',(0.,-1.110223024625E-16,-1.));
#647=DIRECTION('',(0.,1.,-1.110223024625E-16));
#648=DIRECTION('',(0.,-1.110223024625E-16,-1.));
#649=DIRECTION('',(0.,1.,-1.110223024625E-16));
#650=DIRECTION('',(0.,-1.110223024625E-16,-1.));
#651=DIRECTION('',(0.,1.,-1.110223024625E-16));
#652=DIRECTION('',(0.,-1.110223024625E-16,-1.));
#653=DIRECTION('',(0.,1.,-1.110223024625E-16));
#654=DIRECTION('',(0.,-1.110223024625E-16,-1.));
#655=DIRECTION('',(0.,1.,-1.110223024625E-16));
#656=DIRECTION('',(0.,-1.110223024625E-16,-1.));
#657=DIRECTION('',(0.,1.,-1.110223024625E-16));
#658=DIRECTION('',(0.,-1.110223024625E-16,-1.));
#659=DIRECTION('',(0.,1.,-1.110223024625E-16));
#660=DIRECTION('',(0.,-1.110223024625E-16,-1.));
#661=DIRECTION('',(0.,1.,-1.110223024625E-16));
#662=DIRECTION('',(0.,-1.110223024625E-16,-1.));
#663=DIRECTION('',(0.,1.,-1.110223024625E-16));
#664=DIRECTION('',(0.,-1.110223024625E-16,-1.));
#665=DIRECTION('',(0.,1.,-1.110223024625E-16));
#666=DIRECTION('',(0.,-1.110223024625E-16,-1.));
#667=DIRECTION('',(0.,1.,-1.110223024625E-16));
#668=DIRECTION('',(0.,-1.110223024625E-16,-1.));
#669=DIRECTION('',(0.,1.,-1.110223024625E-16));
#670=DIRECTION('',(0.,-1.110223024625E-16,-1.));
#671=DIRECTION('',(0.,1.,-1.110223024625E-16));
#672=DIRECTION('',(0.,-1.110223024625E-16,-1.));
#673=DIRECTION('',(0.,1.,-1.110223024625E-16));
#674=DIRECTION('',(0.,-1.110223024625E-16,-1.));
#675=DIRECTION('',(0.,1.,-1.110223024625E-16));
#676=DIRECTION('',(0.,-1.110223024625E-16,-1.));
#677=DIRECTION('',(0.,1.,-1.110223024625E-16));
#678=DIRECTION('',(0.,-1.110223024625E-16,-1.));
#679=DIRECTION('',(0.,1.,-1.110223024625E-16));
#680=DIRECTION('',(0.,-1.110223024625E-16,-1.));
#681=DIRECTION('',(0.,1.,-1.110223024625E-16));
#682=DIRECTION('',(0.,-1.110223024625E-16,-1.));
#683=DIRECTION('',(0.,1.,-1.110223024625E-16));
#684=DIRECTION('',(0.,-1.110223024625E-16,-1.));
#685=DIRECTION('',(0.,1.,-1.110223024625E-16));
#686=DIRECTION('',(0.,-1.110223024625E-16,-1.));
#687=DIRECTION('',(0.,1.,-1.110223024625E-16));
#688=DIRECTION('',(0.,1.110223024625E-16,1.));
#689=DIRECTION('',(-1.,0.,0.));
#690=DIRECTION('',(0.,1.110223024625E-16,1.));
#691=DIRECTION('',(-1.,0.,0.));
#692=DIRECTION('',(0.,-1.110223024625E-16,-1.));
#693=DIRECTION('',(0.,1.,-1.110223024625E-16));
#694=DIRECTION('',(0.,-1.110223024625E-16,-1.));
#695=DIRECTION('',(0.,1.,-1.110223024625E-16));
#696=DIRECTION('',(-1.,0.,0.));
#697=DIRECTION('',(0.,-1.,1.110223024625E-16));
#698=DIRECTION('',(-1.,0.,0.));
#699=DIRECTION('',(0.,-1.,1.110223024625E-16));
#700=DIRECTION('',(0.,-1.,1.110223024625E-16));
#701=DIRECTION('',(1.,0.,0.));
#702=DIRECTION('',(0.,1.110223024625E-16,1.));
#703=DIRECTION('',(1.,0.,0.));
#704=DIRECTION('',(0.,1.110223024625E-16,1.));
#705=DIRECTION('',(-1.,0.,0.));
#706=DIRECTION('',(0.,-1.,1.110223024625E-16));
#707=DIRECTION('',(0.,1.110223024625E-16,1.));
#708=DIRECTION('',(0.,-1.,1.110223024625E-16));
#709=DIRECTION('',(0.,1.,-1.110223024625E-16));
#710=DIRECTION('',(-1.,0.,0.));
#711=DIRECTION('',(0.,1.110223024625E-16,1.));
#712=DIRECTION('',(-1.,0.,0.));
#713=DIRECTION('',(1.,0.,0.));
#714=DIRECTION('',(0.,1.,-1.110223024625E-16));
#715=DIRECTION('',(0.,1.,-1.110223024625E-16));
#716=DIRECTION('',(0.,-1.110223024625E-16,-1.));
#717=DIRECTION('',(0.,1.,-1.110223024625E-16));
#718=DIRECTION('',(0.,-1.110223024625E-16,-1.));
#719=DIRECTION('',(0.,1.,-1.110223024625E-16));
#720=DIRECTION('',(0.,-1.110223024625E-16,-1.));
#721=DIRECTION('',(0.,1.,-1.110223024625E-16));
#722=DIRECTION('',(0.,-1.110223024625E-16,-1.));
#723=DIRECTION('',(0.,1.,-1.110223024625E-16));
#724=DIRECTION('',(0.,1.110223024625E-16,1.));
#725=DIRECTION('',(-1.,0.,0.));
#726=CARTESIAN_POINT('',(0.,0.,0.));
#727=CARTESIAN_POINT('',(0.1,0.1,0.0120000001));
#728=CARTESIAN_POINT('',(0.1,0.1,1.0000000480459E-10));
#729=CARTESIAN_POINT('',(0.1,-9.992007221625E-19,1.00000017121127E-10));
#730=CARTESIAN_POINT('',(0.1,0.2,9.99999924880535E-11));
#731=CARTESIAN_POINT('',(0.1,0.2,0.0120000001));
#732=CARTESIAN_POINT('',(0.1,0.2,0.0120000001));
#733=CARTESIAN_POINT('',(0.1,0.1005,0.0120000001));
#734=CARTESIAN_POINT('',(0.1,2.08000433993355E-35,0.0120000001));
#735=CARTESIAN_POINT('',(0.1,0.,0.0120000001));
#736=CARTESIAN_POINT('',(0.05,0.2,0.0120000001));
#737=CARTESIAN_POINT('',(0.05,0.2,9.99999909268023E-11));
#738=CARTESIAN_POINT('',(0.,0.2,9.99999924880535E-11));
#739=CARTESIAN_POINT('',(0.,0.2,0.0120000001));
#740=CARTESIAN_POINT('',(-3.46944695195361E-18,0.2,0.0120000001));
#741=CARTESIAN_POINT('',(0.05,0.2,0.0120000001));
#742=CARTESIAN_POINT('',(0.,0.1,0.0120000001));
#743=CARTESIAN_POINT('',(0.,0.1,1.0000000480459E-10));
#744=CARTESIAN_POINT('',(-3.46944695195361E-18,-9.992007221625E-19,1.00000017988489E-10));
#745=CARTESIAN_POINT('',(-6.93889390390723E-18,0.,0.0120000001));
#746=CARTESIAN_POINT('',(-6.93889390390723E-18,-9.62964972193482E-35,0.0120000001));
#747=CARTESIAN_POINT('',(-6.93889390390723E-18,0.1005,0.0120000001));
#748=CARTESIAN_POINT('',(0.05,0.12,0.0120000001));
#749=CARTESIAN_POINT('',(0.05,0.12,0.00200000010000001));
#750=CARTESIAN_POINT('',(0.07,0.12,0.00200000010000001));
#751=CARTESIAN_POINT('',(0.03,0.12,0.00200000010000001));
#752=CARTESIAN_POINT('',(0.07,0.12,0.0120000001));
#753=CARTESIAN_POINT('',(0.07,0.12,0.0120000001));
#754=CARTESIAN_POINT('',(0.05,0.12,0.0120000001));
#755=CARTESIAN_POINT('',(0.03,0.12,0.0120000001));
#756=CARTESIAN_POINT('',(0.03,0.12,0.0120000001));
#757=CARTESIAN_POINT('',(0.07,0.101,0.0120000001));
#758=CARTESIAN_POINT('',(0.07,0.1005,0.00200000010000001));
#759=CARTESIAN_POINT('',(0.07,0.082,0.00200000010000001));
#760=CARTESIAN_POINT('',(0.07,0.082,0.0120000001));
#761=CARTESIAN_POINT('',(0.07,0.082,0.0120000001));
#762=CARTESIAN_POINT('',(0.07,0.101,0.0120000001));
#763=CARTESIAN_POINT('',(0.05,0.082,0.0120000001));
#764=CARTESIAN_POINT('',(0.05,0.082,0.00200000010000001));
#765=CARTESIAN_POINT('',(0.03,0.082,0.00200000010000001));
#766=CARTESIAN_POINT('',(0.03,0.082,0.0120000001));
#767=CARTESIAN_POINT('',(0.03,0.082,0.0120000001));
#768=CARTESIAN_POINT('',(0.05,0.082,0.0120000001));
#769=CARTESIAN_POINT('',(0.05,0.,0.0120000001));
#770=CARTESIAN_POINT('',(0.05,-1.33226762955E-18,1.00000018682378E-10));
#771=CARTESIAN_POINT('',(0.05,0.,0.0120000001));
#772=CARTESIAN_POINT('',(0.03,0.101,0.0120000001));
#773=CARTESIAN_POINT('',(0.03,0.1005,0.00200000010000001));
#774=CARTESIAN_POINT('',(0.03,0.101,0.0120000001));
#775=CARTESIAN_POINT('',(0.049,0.004,0.0120000001));
#776=CARTESIAN_POINT('',(0.049,0.004,1.00000018682378E-10));
#777=CARTESIAN_POINT('',(0.049,0.0055,1.00000018515845E-10));
#778=CARTESIAN_POINT('',(0.049,0.004,0.0120000001));
#779=CARTESIAN_POINT('',(0.049,0.0055,0.0120000001));
#780=CARTESIAN_POINT('',(0.096,0.161,0.0120000001));
#781=CARTESIAN_POINT('',(0.096,0.161,9.99999909268023E-11));
#782=CARTESIAN_POINT('',(0.096,0.1625,9.99999907602688E-11));
#783=CARTESIAN_POINT('',(0.096,0.161,0.0120000001));
#784=CARTESIAN_POINT('',(0.096,0.1625,0.0120000001));
#785=CARTESIAN_POINT('',(0.096,0.039,0.0120000001));
#786=CARTESIAN_POINT('',(0.096,0.039,1.0000000480459E-10));
#787=CARTESIAN_POINT('',(0.096,0.0405,1.00000004638057E-10));
#788=CARTESIAN_POINT('',(0.096,0.039,0.0120000001));
#789=CARTESIAN_POINT('',(0.096,0.0405,0.0120000001));
#790=CARTESIAN_POINT('',(0.004,0.161,0.0120000001));
#791=CARTESIAN_POINT('',(0.004,0.161,9.99999909268023E-11));
#792=CARTESIAN_POINT('',(0.004,0.1625,9.99999907602688E-11));
#793=CARTESIAN_POINT('',(0.004,0.161,0.0120000001));
#794=CARTESIAN_POINT('',(0.004,0.1625,0.0120000001));
#795=CARTESIAN_POINT('',(0.004,0.039,0.0120000001));
#796=CARTESIAN_POINT('',(0.004,0.039,1.0000000480459E-10));
#797=CARTESIAN_POINT('',(0.004,0.0405,1.00000004638057E-10));
#798=CARTESIAN_POINT('',(0.004,0.039,0.0120000001));
#799=CARTESIAN_POINT('',(0.004,0.0405,0.0120000001));
#800=CARTESIAN_POINT('',(0.0815,0.1715,0.0120000001));
#801=CARTESIAN_POINT('',(0.0815,0.1715,9.99999909268023E-11));
#802=CARTESIAN_POINT('',(0.0815,0.17275,9.99999907880244E-11));
#803=CARTESIAN_POINT('',(0.0815,0.1715,0.0120000001));
#804=CARTESIAN_POINT('',(0.0815,0.17275,0.0120000001));
#805=CARTESIAN_POINT('',(0.0185,0.1715,0.0120000001));
#806=CARTESIAN_POINT('',(0.0185,0.1715,9.99999909268023E-11));
#807=CARTESIAN_POINT('',(0.0185,0.17275,9.99999907880244E-11));
#808=CARTESIAN_POINT('',(0.0185,0.1715,0.0120000001));
#809=CARTESIAN_POINT('',(0.0185,0.17275,0.0120000001));
#810=CARTESIAN_POINT('',(0.0815,0.0285,0.0120000001));
#811=CARTESIAN_POINT('',(0.0815,0.0285,1.0000000480459E-10));
#812=CARTESIAN_POINT('',(0.0815,0.02975,1.00000004665812E-10));
#813=CARTESIAN_POINT('',(0.0815,0.0285,0.0120000001));
#814=CARTESIAN_POINT('',(0.0815,0.02975,0.0120000001));
#815=CARTESIAN_POINT('',(0.0185,0.0285,0.0120000001));
#816=CARTESIAN_POINT('',(0.0185,0.0285,1.0000000480459E-10));
#817=CARTESIAN_POINT('',(0.0185,0.02975,1.00000004665812E-10));
#818=CARTESIAN_POINT('',(0.0185,0.0285,0.0120000001));
#819=CARTESIAN_POINT('',(0.0185,0.02975,0.0120000001));
#820=CARTESIAN_POINT('',(0.049,0.196,0.0120000001));
#821=CARTESIAN_POINT('',(0.049,0.196,9.99999909268023E-11));
#822=CARTESIAN_POINT('',(0.049,0.1975,9.99999907602688E-11));
#823=CARTESIAN_POINT('',(0.049,0.196,0.0120000001));
#824=CARTESIAN_POINT('',(0.049,0.1975,0.0120000001));
#825=CARTESIAN_POINT('',(0.05,0.1005,0.0120000001));
#826=CARTESIAN_POINT('',(0.05,0.1005,1.00000008274037E-10));
#827=CARTESIAN_POINT('',(0.05,0.11,1.00000010008761E-10));
#828=CARTESIAN_POINT('',(0.05,0.118,1.00000009120582E-10));
#829=CARTESIAN_POINT('',(0.04,0.091,1.00000010008761E-10));
#830=CARTESIAN_POINT('',(0.04,0.0945,1.00000009620183E-10));
#831=CARTESIAN_POINT('',(0.05,0.094,1.00000008995682E-10));
#832=CARTESIAN_POINT('',(0.066,0.094,1.00000009032111E-10));
#833=CARTESIAN_POINT('',(0.052,0.094,1.00000009032111E-10));
#834=CARTESIAN_POINT('',(0.052,0.1005,1.00000008274037E-10));
#835=CARTESIAN_POINT('',(0.052,0.088,1.00000009640132E-10));
#836=CARTESIAN_POINT('',(0.05,0.088,1.00000009661816E-10));
#837=CARTESIAN_POINT('',(0.066,0.088,1.00000009640132E-10));
#838=CARTESIAN_POINT('',(0.066,0.1005,1.00000008274037E-10));
#839=CARTESIAN_POINT('',(0.059,0.094,0.00200000010000001));
#840=CARTESIAN_POINT('',(0.066,0.094,0.00200000010000001));
#841=CARTESIAN_POINT('',(0.066,0.094,0.00200000010000001));
#842=CARTESIAN_POINT('',(0.059,0.094,0.00200000010000001));
#843=CARTESIAN_POINT('',(0.052,0.094,0.00200000010000001));
#844=CARTESIAN_POINT('',(0.052,0.094,0.00200000010000001));
#845=CARTESIAN_POINT('',(0.066,0.091,0.00200000010000001));
#846=CARTESIAN_POINT('',(0.066,0.088,0.00200000010000001));
#847=CARTESIAN_POINT('',(0.066,0.088,0.00200000010000001));
#848=CARTESIAN_POINT('',(0.066,0.091,0.00200000010000001));
#849=CARTESIAN_POINT('',(0.059,0.088,0.00200000010000001));
#850=CARTESIAN_POINT('',(0.052,0.088,0.00200000010000001));
#851=CARTESIAN_POINT('',(0.052,0.088,0.00200000010000001));
#852=CARTESIAN_POINT('',(0.059,0.088,0.00200000010000001));
#853=CARTESIAN_POINT('',(0.052,0.091,0.00200000010000001));
#854=CARTESIAN_POINT('',(0.052,0.091,0.00200000010000001));
#855=CARTESIAN_POINT('',(0.04,0.091,0.00200000010000001));
#856=CARTESIAN_POINT('',(0.04,0.091,0.00200000010000001));
#857=CARTESIAN_POINT('',(0.04,0.0945,0.00200000010000001));
#858=CARTESIAN_POINT('',(0.05,0.11,0.00200000010000001));
#859=CARTESIAN_POINT('',(0.05,0.11,0.00200000010000001));
#860=CARTESIAN_POINT('',(0.05,0.118,0.00200000010000001));
#861=CARTESIAN_POINT('',(0.05,0.1005,0.00200000010000001));
#862=MECHANICAL_DESIGN_GEOMETRIC_PRESENTATION_REPRESENTATION('',(#523),
#863);
#863=(
GEOMETRIC_REPRESENTATION_CONTEXT(3)
GLOBAL_UNCERTAINTY_ASSIGNED_CONTEXT((#864))
GLOBAL_UNIT_ASSIGNED_CONTEXT((#867,#866,#865))
REPRESENTATION_CONTEXT('Part_18','TOP_LEVEL_ASSEMBLY_PART')
);
#864=UNCERTAINTY_MEASURE_WITH_UNIT(LENGTH_MEASURE(1.E-8),#867,
'DISTANCE_ACCURACY_VALUE','Maximum Tolerance applied to model');
#865=(
NAMED_UNIT(*)
SI_UNIT($,.STERADIAN.)
SOLID_ANGLE_UNIT()
);
#866=(
NAMED_UNIT(*)
PLANE_ANGLE_UNIT()
SI_UNIT($,.RADIAN.)
);
#867=(
LENGTH_UNIT()
NAMED_UNIT(*)
SI_UNIT($,.METRE.)
);
#868=PRODUCT_DEFINITION_SHAPE('','',#869);
#869=PRODUCT_DEFINITION('','',#871,#870);
#870=PRODUCT_DEFINITION_CONTEXT('',#877,'design');
#871=PRODUCT_DEFINITION_FORMATION_WITH_SPECIFIED_SOURCE('','',#873,
 .NOT_KNOWN.);
#872=PRODUCT_RELATED_PRODUCT_CATEGORY('','',(#873));
#873=PRODUCT('Part_18','Part_18','Part_18',(#875));
#874=PRODUCT_CATEGORY('','');
#875=PRODUCT_CONTEXT('',#877,'mechanical');
#876=APPLICATION_PROTOCOL_DEFINITION('international standard',
'ap242_managed_model_based_3d_engineering',2020,#877);
#877=APPLICATION_CONTEXT('managed model based 3d engineering');
ENDSEC;
END-ISO-10303-21;
