ISO-10303-21;
HEADER;
/* Generated by software containing ST-Developer
 * from STEP Tools, Inc. (www.steptools.com) 
 */
/* OPTION: using custom renumber hook */

FILE_DESCRIPTION(
/* description */ ('STEP AP242 Edition 2',
'CAx-IF Rec.Pracs.---Representation and Presentation of Product Manufa
cturing Information (PMI)---4.0---2014-10-13',
'CAx-IF Rec.Pracs.---3D Tessellated Geometry---0.4---2014-09-14','2;1',
'CAx-IF Rec.Pracs.---User Defined Attributes---1.5---2016-08-15'),
/* implementation_level */ '2;1');

FILE_NAME(
/* name */ 'FrameA',
/* time_stamp */ '2026-07-31T10:27:53Z',
/* author */ (''),
/* organization */ (''),
/* preprocessor_version */ 'ST-DEVELOPER v20',
/* originating_system */ 'ONSHAPE BY PTC INC, 1.218',
/* authorisation */ '  ');

FILE_SCHEMA (('AP242_MANAGED_MODEL_BASED_3D_ENGINEERING_MIM_LF { 1 0 10303 442 3 1 4 }'));
ENDSEC;

DATA;
#10=SHAPE_REPRESENTATION_RELATIONSHIP('','',#155,#11);
#11=ADVANCED_BREP_SHAPE_REPRESENTATION('',(#153),#245);
#12=CYLINDRICAL_SURFACE('',#167,0.0015);
#13=CYLINDRICAL_SURFACE('',#168,0.0015);
#14=CIRCLE('',#160,0.0015);
#15=CIRCLE('',#161,0.0015);
#16=CIRCLE('',#164,0.0015);
#17=CIRCLE('',#165,0.0015);
#18=ORIENTED_EDGE('',*,*,#50,.T.);
#19=ORIENTED_EDGE('',*,*,#51,.F.);
#20=ORIENTED_EDGE('',*,*,#52,.F.);
#21=ORIENTED_EDGE('',*,*,#53,.T.);
#22=ORIENTED_EDGE('',*,*,#54,.T.);
#23=ORIENTED_EDGE('',*,*,#55,.F.);
#24=ORIENTED_EDGE('',*,*,#53,.F.);
#25=ORIENTED_EDGE('',*,*,#56,.T.);
#26=ORIENTED_EDGE('',*,*,#50,.F.);
#27=ORIENTED_EDGE('',*,*,#55,.T.);
#28=ORIENTED_EDGE('',*,*,#57,.T.);
#29=ORIENTED_EDGE('',*,*,#58,.F.);
#30=ORIENTED_EDGE('',*,*,#59,.F.);
#31=ORIENTED_EDGE('',*,*,#60,.F.);
#32=ORIENTED_EDGE('',*,*,#61,.F.);
#33=ORIENTED_EDGE('',*,*,#51,.T.);
#34=ORIENTED_EDGE('',*,*,#58,.T.);
#35=ORIENTED_EDGE('',*,*,#62,.F.);
#36=ORIENTED_EDGE('',*,*,#61,.T.);
#37=ORIENTED_EDGE('',*,*,#63,.F.);
#38=ORIENTED_EDGE('',*,*,#56,.F.);
#39=ORIENTED_EDGE('',*,*,#52,.T.);
#40=ORIENTED_EDGE('',*,*,#64,.T.);
#41=ORIENTED_EDGE('',*,*,#65,.T.);
#42=ORIENTED_EDGE('',*,*,#54,.F.);
#43=ORIENTED_EDGE('',*,*,#63,.T.);
#44=ORIENTED_EDGE('',*,*,#62,.T.);
#45=ORIENTED_EDGE('',*,*,#57,.F.);
#46=ORIENTED_EDGE('',*,*,#59,.T.);
#47=ORIENTED_EDGE('',*,*,#64,.F.);
#48=ORIENTED_EDGE('',*,*,#60,.T.);
#49=ORIENTED_EDGE('',*,*,#65,.F.);
#50=EDGE_CURVE('',#66,#67,#78,.F.);
#51=EDGE_CURVE('',#68,#67,#79,.T.);
#52=EDGE_CURVE('',#69,#68,#80,.T.);
#53=EDGE_CURVE('',#69,#66,#81,.T.);
#54=EDGE_CURVE('',#70,#71,#82,.T.);
#55=EDGE_CURVE('',#66,#71,#83,.T.);
#56=EDGE_CURVE('',#69,#70,#84,.T.);
#57=EDGE_CURVE('',#71,#72,#85,.T.);
#58=EDGE_CURVE('',#67,#72,#86,.T.);
#59=EDGE_CURVE('',#73,#73,#14,.T.);
#60=EDGE_CURVE('',#74,#74,#15,.T.);
#61=EDGE_CURVE('',#68,#75,#87,.T.);
#62=EDGE_CURVE('',#75,#72,#88,.T.);
#63=EDGE_CURVE('',#70,#75,#89,.F.);
#64=EDGE_CURVE('',#76,#76,#16,.T.);
#65=EDGE_CURVE('',#77,#77,#17,.T.);
#66=VERTEX_POINT('',#210);
#67=VERTEX_POINT('',#211);
#68=VERTEX_POINT('',#213);
#69=VERTEX_POINT('',#215);
#70=VERTEX_POINT('',#219);
#71=VERTEX_POINT('',#220);
#72=VERTEX_POINT('',#225);
#73=VERTEX_POINT('',#228);
#74=VERTEX_POINT('',#230);
#75=VERTEX_POINT('',#233);
#76=VERTEX_POINT('',#238);
#77=VERTEX_POINT('',#240);
#78=LINE('',#209,#90);
#79=LINE('',#212,#91);
#80=LINE('',#214,#92);
#81=LINE('',#216,#93);
#82=LINE('',#218,#94);
#83=LINE('',#221,#95);
#84=LINE('',#222,#96);
#85=LINE('',#224,#97);
#86=LINE('',#226,#98);
#87=LINE('',#232,#99);
#88=LINE('',#234,#100);
#89=LINE('',#236,#101);
#90=VECTOR('',#173,1.);
#91=VECTOR('',#174,1.);
#92=VECTOR('',#175,1.);
#93=VECTOR('',#176,1.);
#94=VECTOR('',#179,1.);
#95=VECTOR('',#180,1.);
#96=VECTOR('',#181,1.);
#97=VECTOR('',#184,1.);
#98=VECTOR('',#185,1.);
#99=VECTOR('',#192,1.);
#100=VECTOR('',#193,1.);
#101=VECTOR('',#196,1.);
#102=EDGE_LOOP('',(#18,#19,#20,#21));
#103=EDGE_LOOP('',(#22,#23,#24,#25));
#104=EDGE_LOOP('',(#26,#27,#28,#29));
#105=EDGE_LOOP('',(#30));
#106=EDGE_LOOP('',(#31));
#107=EDGE_LOOP('',(#32,#33,#34,#35));
#108=EDGE_LOOP('',(#36,#37,#38,#39));
#109=EDGE_LOOP('',(#40));
#110=EDGE_LOOP('',(#41));
#111=EDGE_LOOP('',(#42,#43,#44,#45));
#112=EDGE_LOOP('',(#46));
#113=EDGE_LOOP('',(#47));
#114=EDGE_LOOP('',(#48));
#115=EDGE_LOOP('',(#49));
#116=FACE_BOUND('',#102,.T.);
#117=FACE_BOUND('',#103,.T.);
#118=FACE_BOUND('',#104,.T.);
#119=FACE_BOUND('',#105,.T.);
#120=FACE_BOUND('',#106,.T.);
#121=FACE_BOUND('',#107,.T.);
#122=FACE_BOUND('',#108,.T.);
#123=FACE_BOUND('',#109,.T.);
#124=FACE_BOUND('',#110,.T.);
#125=FACE_BOUND('',#111,.T.);
#126=FACE_BOUND('',#112,.T.);
#127=FACE_BOUND('',#113,.T.);
#128=FACE_BOUND('',#114,.T.);
#129=FACE_BOUND('',#115,.T.);
#130=PLANE('',#157);
#131=PLANE('',#158);
#132=PLANE('',#159);
#133=PLANE('',#162);
#134=PLANE('',#163);
#135=PLANE('',#166);
#136=ADVANCED_FACE('',(#116),#130,.F.);
#137=ADVANCED_FACE('',(#117),#131,.F.);
#138=ADVANCED_FACE('',(#118,#119,#120),#132,.T.);
#139=ADVANCED_FACE('',(#121),#133,.T.);
#140=ADVANCED_FACE('',(#122,#123,#124),#134,.F.);
#141=ADVANCED_FACE('',(#125),#135,.T.);
#142=ADVANCED_FACE('',(#126,#127),#12,.F.);
#143=ADVANCED_FACE('',(#128,#129),#13,.F.);
#144=CLOSED_SHELL('',(#136,#137,#138,#139,#140,#141,#142,#143));
#145=STYLED_ITEM('',(#146),#153);
#146=PRESENTATION_STYLE_ASSIGNMENT((#147));
#147=SURFACE_STYLE_USAGE(.BOTH.,#148);
#148=SURFACE_SIDE_STYLE('',(#149));
#149=SURFACE_STYLE_FILL_AREA(#150);
#150=FILL_AREA_STYLE('',(#151));
#151=FILL_AREA_STYLE_COLOUR('',#152);
#152=COLOUR_RGB('',0.764705882352941,0.690196078431373,0.568627450980392);
#153=MANIFOLD_SOLID_BREP('Part 1',#144);
#154=SHAPE_DEFINITION_REPRESENTATION(#250,#155);
#155=SHAPE_REPRESENTATION('Part 1',(#156),#245);
#156=AXIS2_PLACEMENT_3D('',#207,#169,#170);
#157=AXIS2_PLACEMENT_3D('',#208,#171,#172);
#158=AXIS2_PLACEMENT_3D('',#217,#177,#178);
#159=AXIS2_PLACEMENT_3D('',#223,#182,#183);
#160=AXIS2_PLACEMENT_3D('',#227,#186,#187);
#161=AXIS2_PLACEMENT_3D('',#229,#188,#189);
#162=AXIS2_PLACEMENT_3D('',#231,#190,#191);
#163=AXIS2_PLACEMENT_3D('',#235,#194,#195);
#164=AXIS2_PLACEMENT_3D('',#237,#197,#198);
#165=AXIS2_PLACEMENT_3D('',#239,#199,#200);
#166=AXIS2_PLACEMENT_3D('',#241,#201,#202);
#167=AXIS2_PLACEMENT_3D('',#242,#203,#204);
#168=AXIS2_PLACEMENT_3D('',#243,#205,#206);
#169=DIRECTION('',(0.,0.,1.));
#170=DIRECTION('',(1.,0.,0.));
#171=DIRECTION('',(1.,0.,0.));
#172=DIRECTION('',(0.,0.,1.));
#173=DIRECTION('',(0.,-1.,0.));
#174=DIRECTION('',(0.,0.,1.));
#175=DIRECTION('',(0.,1.,0.));
#176=DIRECTION('',(0.,0.,1.));
#177=DIRECTION('',(0.,1.,0.));
#178=DIRECTION('',(0.,0.,1.));
#179=DIRECTION('',(0.,0.,1.));
#180=DIRECTION('',(1.,0.,0.));
#181=DIRECTION('',(1.,0.,0.));
#182=DIRECTION('',(0.,0.,1.));
#183=DIRECTION('',(1.,0.,0.));
#184=DIRECTION('',(0.,1.,0.));
#185=DIRECTION('',(1.,0.,0.));
#186=DIRECTION('',(0.,0.,1.));
#187=DIRECTION('',(1.,0.,0.));
#188=DIRECTION('',(0.,0.,1.));
#189=DIRECTION('',(1.,0.,0.));
#190=DIRECTION('',(0.,1.,0.));
#191=DIRECTION('',(0.,0.,1.));
#192=DIRECTION('',(1.,0.,0.));
#193=DIRECTION('',(0.,0.,1.));
#194=DIRECTION('',(0.,0.,1.));
#195=DIRECTION('',(1.,0.,0.));
#196=DIRECTION('',(0.,-1.,0.));
#197=DIRECTION('',(0.,0.,1.));
#198=DIRECTION('',(1.,0.,0.));
#199=DIRECTION('',(0.,0.,1.));
#200=DIRECTION('',(1.,0.,0.));
#201=DIRECTION('',(1.,0.,0.));
#202=DIRECTION('',(0.,0.,1.));
#203=DIRECTION('',(0.,0.,1.));
#204=DIRECTION('',(1.,0.,0.));
#205=DIRECTION('',(0.,0.,1.));
#206=DIRECTION('',(1.,0.,0.));
#207=CARTESIAN_POINT('',(0.,0.,0.));
#208=CARTESIAN_POINT('',(0.,0.,0.));
#209=CARTESIAN_POINT('',(0.,0.,0.01));
#210=CARTESIAN_POINT('',(0.,0.,0.01));
#211=CARTESIAN_POINT('',(0.,0.182,0.01));
#212=CARTESIAN_POINT('',(0.,0.182,0.));
#213=CARTESIAN_POINT('',(0.,0.182,0.));
#214=CARTESIAN_POINT('',(0.,0.,0.));
#215=CARTESIAN_POINT('',(0.,0.,0.));
#216=CARTESIAN_POINT('',(0.,0.,0.));
#217=CARTESIAN_POINT('',(0.,0.,0.));
#218=CARTESIAN_POINT('',(0.01,0.,0.));
#219=CARTESIAN_POINT('',(0.01,0.,0.));
#220=CARTESIAN_POINT('',(0.01,0.,0.01));
#221=CARTESIAN_POINT('',(0.,0.,0.01));
#222=CARTESIAN_POINT('',(0.,0.,0.));
#223=CARTESIAN_POINT('',(0.,0.,0.01));
#224=CARTESIAN_POINT('',(0.01,0.,0.01));
#225=CARTESIAN_POINT('',(0.01,0.182,0.01));
#226=CARTESIAN_POINT('',(0.,0.182,0.01));
#227=CARTESIAN_POINT('',(0.005,0.029,0.01));
#228=CARTESIAN_POINT('',(0.0065,0.029,0.01));
#229=CARTESIAN_POINT('',(0.005,0.151,0.01));
#230=CARTESIAN_POINT('',(0.0065,0.151,0.01));
#231=CARTESIAN_POINT('',(0.,0.182,0.));
#232=CARTESIAN_POINT('',(0.,0.182,0.));
#233=CARTESIAN_POINT('',(0.01,0.182,0.));
#234=CARTESIAN_POINT('',(0.01,0.182,0.));
#235=CARTESIAN_POINT('',(0.,0.,0.));
#236=CARTESIAN_POINT('',(0.01,0.,0.));
#237=CARTESIAN_POINT('',(0.005,0.029,0.));
#238=CARTESIAN_POINT('',(0.0065,0.029,0.));
#239=CARTESIAN_POINT('',(0.005,0.151,0.));
#240=CARTESIAN_POINT('',(0.0065,0.151,0.));
#241=CARTESIAN_POINT('',(0.01,0.,0.));
#242=CARTESIAN_POINT('',(0.005,0.029,-0.005));
#243=CARTESIAN_POINT('',(0.005,0.151,-0.005));
#244=MECHANICAL_DESIGN_GEOMETRIC_PRESENTATION_REPRESENTATION('',(#145),
#245);
#245=(
GEOMETRIC_REPRESENTATION_CONTEXT(3)
GLOBAL_UNCERTAINTY_ASSIGNED_CONTEXT((#246))
GLOBAL_UNIT_ASSIGNED_CONTEXT((#249,#248,#247))
REPRESENTATION_CONTEXT('Part 1','TOP_LEVEL_ASSEMBLY_PART')
);
#246=UNCERTAINTY_MEASURE_WITH_UNIT(LENGTH_MEASURE(1.E-8),#249,
'DISTANCE_ACCURACY_VALUE','Maximum Tolerance applied to model');
#247=(
NAMED_UNIT(*)
SI_UNIT($,.STERADIAN.)
SOLID_ANGLE_UNIT()
);
#248=(
NAMED_UNIT(*)
PLANE_ANGLE_UNIT()
SI_UNIT($,.RADIAN.)
);
#249=(
LENGTH_UNIT()
NAMED_UNIT(*)
SI_UNIT($,.METRE.)
);
#250=PRODUCT_DEFINITION_SHAPE('','',#251);
#251=PRODUCT_DEFINITION('','',#253,#252);
#252=PRODUCT_DEFINITION_CONTEXT('',#259,'design');
#253=PRODUCT_DEFINITION_FORMATION_WITH_SPECIFIED_SOURCE('','',#255,
 .NOT_KNOWN.);
#254=PRODUCT_RELATED_PRODUCT_CATEGORY('','',(#255));
#255=PRODUCT('Part 1','Part 1','Part 1',(#257));
#256=PRODUCT_CATEGORY('','');
#257=PRODUCT_CONTEXT('',#259,'mechanical');
#258=APPLICATION_PROTOCOL_DEFINITION('international standard',
'ap242_managed_model_based_3d_engineering',2020,#259);
#259=APPLICATION_CONTEXT('managed model based 3d engineering');
ENDSEC;
END-ISO-10303-21;
