ISO-10303-21;
HEADER;
/* Generated by software containing ST-Developer
 * from STEP Tools, Inc. (www.steptools.com) 
 */
/* OPTION: using custom renumber hook */

FILE_DESCRIPTION(
/* description */ ('STEP AP242 Edition 2',
'CAx-IF Rec.Pracs.---Representation and Presentation of Product Manufa
cturing Information (PMI)---4.0---2014-10-13',
'CAx-IF Rec.Pracs.---3D Tessellated Geometry---0.4---2014-09-14','2;1',
'CAx-IF Rec.Pracs.---User Defined Attributes---1.5---2016-08-15'),
/* implementation_level */ '2;1');

FILE_NAME(
/* name */ 'Speaker_Front_Baffle',
/* time_stamp */ '2026-07-31T10:28:08Z',
/* author */ (''),
/* organization */ (''),
/* preprocessor_version */ 'ST-DEVELOPER v20',
/* originating_system */ 'ONSHAPE BY PTC INC, 1.218',
/* authorisation */ '  ');

FILE_SCHEMA (('AP242_MANAGED_MODEL_BASED_3D_ENGINEERING_MIM_LF { 1 0 10303 442 3 1 4 }'));
ENDSEC;

DATA;
#10=SHAPE_REPRESENTATION_RELATIONSHIP('','',#359,#11);
#11=ADVANCED_BREP_SHAPE_REPRESENTATION('',(#357),#597);
#12=CIRCLE('',#365,0.033);
#13=CIRCLE('',#366,0.033);
#14=CIRCLE('',#368,0.046);
#15=CIRCLE('',#369,0.046);
#16=CIRCLE('',#371,0.001);
#17=CIRCLE('',#372,0.001);
#18=CIRCLE('',#374,0.001);
#19=CIRCLE('',#375,0.001);
#20=CIRCLE('',#377,0.001);
#21=CIRCLE('',#378,0.001);
#22=CIRCLE('',#380,0.001);
#23=CIRCLE('',#381,0.001);
#24=CIRCLE('',#385,0.044);
#25=CIRCLE('',#386,0.001);
#26=CIRCLE('',#387,0.001);
#27=CIRCLE('',#388,0.001);
#28=CIRCLE('',#389,0.001);
#29=CIRCLE('',#390,0.0225);
#30=CIRCLE('',#392,0.044);
#31=CIRCLE('',#395,0.0225);
#32=CIRCLE('',#397,0.001);
#33=CIRCLE('',#399,0.001);
#34=CIRCLE('',#401,0.001);
#35=CIRCLE('',#403,0.001);
#36=CYLINDRICAL_SURFACE('',#364,0.033);
#37=CYLINDRICAL_SURFACE('',#367,0.046);
#38=CYLINDRICAL_SURFACE('',#370,0.001);
#39=CYLINDRICAL_SURFACE('',#373,0.001);
#40=CYLINDRICAL_SURFACE('',#376,0.001);
#41=CYLINDRICAL_SURFACE('',#379,0.001);
#42=CYLINDRICAL_SURFACE('',#391,0.044);
#43=CYLINDRICAL_SURFACE('',#394,0.0225);
#44=CYLINDRICAL_SURFACE('',#396,0.001);
#45=CYLINDRICAL_SURFACE('',#398,0.001);
#46=CYLINDRICAL_SURFACE('',#400,0.001);
#47=CYLINDRICAL_SURFACE('',#402,0.001);
#48=ORIENTED_EDGE('',*,*,#120,.T.);
#49=ORIENTED_EDGE('',*,*,#121,.F.);
#50=ORIENTED_EDGE('',*,*,#122,.F.);
#51=ORIENTED_EDGE('',*,*,#123,.T.);
#52=ORIENTED_EDGE('',*,*,#124,.T.);
#53=ORIENTED_EDGE('',*,*,#125,.F.);
#54=ORIENTED_EDGE('',*,*,#126,.F.);
#55=ORIENTED_EDGE('',*,*,#121,.T.);
#56=ORIENTED_EDGE('',*,*,#127,.T.);
#57=ORIENTED_EDGE('',*,*,#128,.F.);
#58=ORIENTED_EDGE('',*,*,#129,.F.);
#59=ORIENTED_EDGE('',*,*,#125,.T.);
#60=ORIENTED_EDGE('',*,*,#130,.F.);
#61=ORIENTED_EDGE('',*,*,#131,.T.);
#62=ORIENTED_EDGE('',*,*,#132,.F.);
#63=ORIENTED_EDGE('',*,*,#133,.T.);
#64=ORIENTED_EDGE('',*,*,#134,.F.);
#65=ORIENTED_EDGE('',*,*,#135,.T.);
#66=ORIENTED_EDGE('',*,*,#136,.F.);
#67=ORIENTED_EDGE('',*,*,#137,.T.);
#68=ORIENTED_EDGE('',*,*,#138,.F.);
#69=ORIENTED_EDGE('',*,*,#139,.T.);
#70=ORIENTED_EDGE('',*,*,#140,.F.);
#71=ORIENTED_EDGE('',*,*,#141,.T.);
#72=ORIENTED_EDGE('',*,*,#142,.T.);
#73=ORIENTED_EDGE('',*,*,#123,.F.);
#74=ORIENTED_EDGE('',*,*,#143,.F.);
#75=ORIENTED_EDGE('',*,*,#128,.T.);
#76=ORIENTED_EDGE('',*,*,#141,.F.);
#77=ORIENTED_EDGE('',*,*,#139,.F.);
#78=ORIENTED_EDGE('',*,*,#137,.F.);
#79=ORIENTED_EDGE('',*,*,#135,.F.);
#80=ORIENTED_EDGE('',*,*,#133,.F.);
#81=ORIENTED_EDGE('',*,*,#131,.F.);
#82=ORIENTED_EDGE('',*,*,#122,.T.);
#83=ORIENTED_EDGE('',*,*,#126,.T.);
#84=ORIENTED_EDGE('',*,*,#129,.T.);
#85=ORIENTED_EDGE('',*,*,#143,.T.);
#86=ORIENTED_EDGE('',*,*,#140,.T.);
#87=ORIENTED_EDGE('',*,*,#138,.T.);
#88=ORIENTED_EDGE('',*,*,#136,.T.);
#89=ORIENTED_EDGE('',*,*,#134,.T.);
#90=ORIENTED_EDGE('',*,*,#120,.F.);
#91=ORIENTED_EDGE('',*,*,#142,.F.);
#92=ORIENTED_EDGE('',*,*,#127,.F.);
#93=ORIENTED_EDGE('',*,*,#124,.F.);
#94=ORIENTED_EDGE('',*,*,#144,.T.);
#95=ORIENTED_EDGE('',*,*,#145,.T.);
#96=ORIENTED_EDGE('',*,*,#146,.T.);
#97=ORIENTED_EDGE('',*,*,#147,.T.);
#98=ORIENTED_EDGE('',*,*,#148,.T.);
#99=ORIENTED_EDGE('',*,*,#149,.T.);
#100=ORIENTED_EDGE('',*,*,#144,.F.);
#101=ORIENTED_EDGE('',*,*,#150,.T.);
#102=ORIENTED_EDGE('',*,*,#150,.F.);
#103=ORIENTED_EDGE('',*,*,#132,.T.);
#104=ORIENTED_EDGE('',*,*,#149,.F.);
#105=ORIENTED_EDGE('',*,*,#151,.T.);
#106=ORIENTED_EDGE('',*,*,#148,.F.);
#107=ORIENTED_EDGE('',*,*,#152,.T.);
#108=ORIENTED_EDGE('',*,*,#147,.F.);
#109=ORIENTED_EDGE('',*,*,#153,.T.);
#110=ORIENTED_EDGE('',*,*,#146,.F.);
#111=ORIENTED_EDGE('',*,*,#154,.T.);
#112=ORIENTED_EDGE('',*,*,#145,.F.);
#113=ORIENTED_EDGE('',*,*,#155,.T.);
#114=ORIENTED_EDGE('',*,*,#155,.F.);
#115=ORIENTED_EDGE('',*,*,#154,.F.);
#116=ORIENTED_EDGE('',*,*,#153,.F.);
#117=ORIENTED_EDGE('',*,*,#152,.F.);
#118=ORIENTED_EDGE('',*,*,#151,.F.);
#119=ORIENTED_EDGE('',*,*,#130,.T.);
#120=EDGE_CURVE('',#156,#157,#188,.T.);
#121=EDGE_CURVE('',#158,#157,#189,.T.);
#122=EDGE_CURVE('',#159,#158,#190,.F.);
#123=EDGE_CURVE('',#159,#156,#191,.T.);
#124=EDGE_CURVE('',#157,#160,#192,.T.);
#125=EDGE_CURVE('',#161,#160,#193,.T.);
#126=EDGE_CURVE('',#158,#161,#194,.T.);
#127=EDGE_CURVE('',#160,#162,#195,.T.);
#128=EDGE_CURVE('',#163,#162,#196,.T.);
#129=EDGE_CURVE('',#161,#163,#197,.T.);
#130=EDGE_CURVE('',#164,#164,#12,.F.);
#131=EDGE_CURVE('',#165,#165,#13,.F.);
#132=EDGE_CURVE('',#166,#166,#14,.F.);
#133=EDGE_CURVE('',#167,#167,#15,.F.);
#134=EDGE_CURVE('',#168,#168,#16,.F.);
#135=EDGE_CURVE('',#169,#169,#17,.F.);
#136=EDGE_CURVE('',#170,#170,#18,.F.);
#137=EDGE_CURVE('',#171,#171,#19,.F.);
#138=EDGE_CURVE('',#172,#172,#20,.F.);
#139=EDGE_CURVE('',#173,#173,#21,.F.);
#140=EDGE_CURVE('',#174,#174,#22,.F.);
#141=EDGE_CURVE('',#175,#175,#23,.F.);
#142=EDGE_CURVE('',#162,#156,#198,.T.);
#143=EDGE_CURVE('',#163,#159,#199,.F.);
#144=EDGE_CURVE('',#176,#176,#24,.F.);
#145=EDGE_CURVE('',#177,#177,#25,.F.);
#146=EDGE_CURVE('',#178,#178,#26,.F.);
#147=EDGE_CURVE('',#179,#179,#27,.F.);
#148=EDGE_CURVE('',#180,#180,#28,.F.);
#149=EDGE_CURVE('',#181,#181,#29,.F.);
#150=EDGE_CURVE('',#182,#182,#30,.F.);
#151=EDGE_CURVE('',#183,#183,#31,.F.);
#152=EDGE_CURVE('',#184,#184,#32,.F.);
#153=EDGE_CURVE('',#185,#185,#33,.F.);
#154=EDGE_CURVE('',#186,#186,#34,.F.);
#155=EDGE_CURVE('',#187,#187,#35,.F.);
#156=VERTEX_POINT('',#510);
#157=VERTEX_POINT('',#511);
#158=VERTEX_POINT('',#513);
#159=VERTEX_POINT('',#515);
#160=VERTEX_POINT('',#519);
#161=VERTEX_POINT('',#521);
#162=VERTEX_POINT('',#525);
#163=VERTEX_POINT('',#527);
#164=VERTEX_POINT('',#531);
#165=VERTEX_POINT('',#533);
#166=VERTEX_POINT('',#536);
#167=VERTEX_POINT('',#538);
#168=VERTEX_POINT('',#541);
#169=VERTEX_POINT('',#543);
#170=VERTEX_POINT('',#546);
#171=VERTEX_POINT('',#548);
#172=VERTEX_POINT('',#551);
#173=VERTEX_POINT('',#553);
#174=VERTEX_POINT('',#556);
#175=VERTEX_POINT('',#558);
#176=VERTEX_POINT('',#565);
#177=VERTEX_POINT('',#567);
#178=VERTEX_POINT('',#569);
#179=VERTEX_POINT('',#571);
#180=VERTEX_POINT('',#573);
#181=VERTEX_POINT('',#575);
#182=VERTEX_POINT('',#578);
#183=VERTEX_POINT('',#582);
#184=VERTEX_POINT('',#585);
#185=VERTEX_POINT('',#588);
#186=VERTEX_POINT('',#591);
#187=VERTEX_POINT('',#594);
#188=LINE('',#509,#200);
#189=LINE('',#512,#201);
#190=LINE('',#514,#202);
#191=LINE('',#516,#203);
#192=LINE('',#518,#204);
#193=LINE('',#520,#205);
#194=LINE('',#522,#206);
#195=LINE('',#524,#207);
#196=LINE('',#526,#208);
#197=LINE('',#528,#209);
#198=LINE('',#560,#210);
#199=LINE('',#561,#211);
#200=VECTOR('',#409,1.);
#201=VECTOR('',#410,1.);
#202=VECTOR('',#411,1.);
#203=VECTOR('',#412,1.);
#204=VECTOR('',#415,1.);
#205=VECTOR('',#416,1.);
#206=VECTOR('',#417,1.);
#207=VECTOR('',#420,1.);
#208=VECTOR('',#421,1.);
#209=VECTOR('',#422,1.);
#210=VECTOR('',#461,1.);
#211=VECTOR('',#462,1.);
#212=EDGE_LOOP('',(#48,#49,#50,#51));
#213=EDGE_LOOP('',(#52,#53,#54,#55));
#214=EDGE_LOOP('',(#56,#57,#58,#59));
#215=EDGE_LOOP('',(#60));
#216=EDGE_LOOP('',(#61));
#217=EDGE_LOOP('',(#62));
#218=EDGE_LOOP('',(#63));
#219=EDGE_LOOP('',(#64));
#220=EDGE_LOOP('',(#65));
#221=EDGE_LOOP('',(#66));
#222=EDGE_LOOP('',(#67));
#223=EDGE_LOOP('',(#68));
#224=EDGE_LOOP('',(#69));
#225=EDGE_LOOP('',(#70));
#226=EDGE_LOOP('',(#71));
#227=EDGE_LOOP('',(#72,#73,#74,#75));
#228=EDGE_LOOP('',(#76));
#229=EDGE_LOOP('',(#77));
#230=EDGE_LOOP('',(#78));
#231=EDGE_LOOP('',(#79));
#232=EDGE_LOOP('',(#80));
#233=EDGE_LOOP('',(#81));
#234=EDGE_LOOP('',(#82,#83,#84,#85));
#235=EDGE_LOOP('',(#86));
#236=EDGE_LOOP('',(#87));
#237=EDGE_LOOP('',(#88));
#238=EDGE_LOOP('',(#89));
#239=EDGE_LOOP('',(#90,#91,#92,#93));
#240=EDGE_LOOP('',(#94));
#241=EDGE_LOOP('',(#95));
#242=EDGE_LOOP('',(#96));
#243=EDGE_LOOP('',(#97));
#244=EDGE_LOOP('',(#98));
#245=EDGE_LOOP('',(#99));
#246=EDGE_LOOP('',(#100));
#247=EDGE_LOOP('',(#101));
#248=EDGE_LOOP('',(#102));
#249=EDGE_LOOP('',(#103));
#250=EDGE_LOOP('',(#104));
#251=EDGE_LOOP('',(#105));
#252=EDGE_LOOP('',(#106));
#253=EDGE_LOOP('',(#107));
#254=EDGE_LOOP('',(#108));
#255=EDGE_LOOP('',(#109));
#256=EDGE_LOOP('',(#110));
#257=EDGE_LOOP('',(#111));
#258=EDGE_LOOP('',(#112));
#259=EDGE_LOOP('',(#113));
#260=EDGE_LOOP('',(#114));
#261=EDGE_LOOP('',(#115));
#262=EDGE_LOOP('',(#116));
#263=EDGE_LOOP('',(#117));
#264=EDGE_LOOP('',(#118));
#265=EDGE_LOOP('',(#119));
#266=FACE_BOUND('',#212,.T.);
#267=FACE_BOUND('',#213,.T.);
#268=FACE_BOUND('',#214,.T.);
#269=FACE_BOUND('',#215,.T.);
#270=FACE_BOUND('',#216,.T.);
#271=FACE_BOUND('',#217,.T.);
#272=FACE_BOUND('',#218,.T.);
#273=FACE_BOUND('',#219,.T.);
#274=FACE_BOUND('',#220,.T.);
#275=FACE_BOUND('',#221,.T.);
#276=FACE_BOUND('',#222,.T.);
#277=FACE_BOUND('',#223,.T.);
#278=FACE_BOUND('',#224,.T.);
#279=FACE_BOUND('',#225,.T.);
#280=FACE_BOUND('',#226,.T.);
#281=FACE_BOUND('',#227,.T.);
#282=FACE_BOUND('',#228,.T.);
#283=FACE_BOUND('',#229,.T.);
#284=FACE_BOUND('',#230,.T.);
#285=FACE_BOUND('',#231,.T.);
#286=FACE_BOUND('',#232,.T.);
#287=FACE_BOUND('',#233,.T.);
#288=FACE_BOUND('',#234,.T.);
#289=FACE_BOUND('',#235,.T.);
#290=FACE_BOUND('',#236,.T.);
#291=FACE_BOUND('',#237,.T.);
#292=FACE_BOUND('',#238,.T.);
#293=FACE_BOUND('',#239,.T.);
#294=FACE_BOUND('',#240,.T.);
#295=FACE_BOUND('',#241,.T.);
#296=FACE_BOUND('',#242,.T.);
#297=FACE_BOUND('',#243,.T.);
#298=FACE_BOUND('',#244,.T.);
#299=FACE_BOUND('',#245,.T.);
#300=FACE_BOUND('',#246,.T.);
#301=FACE_BOUND('',#247,.T.);
#302=FACE_BOUND('',#248,.T.);
#303=FACE_BOUND('',#249,.T.);
#304=FACE_BOUND('',#250,.T.);
#305=FACE_BOUND('',#251,.T.);
#306=FACE_BOUND('',#252,.T.);
#307=FACE_BOUND('',#253,.T.);
#308=FACE_BOUND('',#254,.T.);
#309=FACE_BOUND('',#255,.T.);
#310=FACE_BOUND('',#256,.T.);
#311=FACE_BOUND('',#257,.T.);
#312=FACE_BOUND('',#258,.T.);
#313=FACE_BOUND('',#259,.T.);
#314=FACE_BOUND('',#260,.T.);
#315=FACE_BOUND('',#261,.T.);
#316=FACE_BOUND('',#262,.T.);
#317=FACE_BOUND('',#263,.T.);
#318=FACE_BOUND('',#264,.T.);
#319=FACE_BOUND('',#265,.T.);
#320=PLANE('',#361);
#321=PLANE('',#362);
#322=PLANE('',#363);
#323=PLANE('',#382);
#324=PLANE('',#383);
#325=PLANE('',#384);
#326=PLANE('',#393);
#327=PLANE('',#404);
#328=ADVANCED_FACE('',(#266),#320,.F.);
#329=ADVANCED_FACE('',(#267),#321,.F.);
#330=ADVANCED_FACE('',(#268),#322,.F.);
#331=ADVANCED_FACE('',(#269,#270),#36,.F.);
#332=ADVANCED_FACE('',(#271,#272),#37,.F.);
#333=ADVANCED_FACE('',(#273,#274),#38,.F.);
#334=ADVANCED_FACE('',(#275,#276),#39,.F.);
#335=ADVANCED_FACE('',(#277,#278),#40,.F.);
#336=ADVANCED_FACE('',(#279,#280),#41,.F.);
#337=ADVANCED_FACE('',(#281),#323,.F.);
#338=ADVANCED_FACE('',(#282,#283,#284,#285,#286,#287,#288),#324,.T.);
#339=ADVANCED_FACE('',(#289,#290,#291,#292,#293,#294,#295,#296,#297,#298,
#299),#325,.F.);
#340=ADVANCED_FACE('',(#300,#301),#42,.F.);
#341=ADVANCED_FACE('',(#302,#303),#326,.T.);
#342=ADVANCED_FACE('',(#304,#305),#43,.F.);
#343=ADVANCED_FACE('',(#306,#307),#44,.F.);
#344=ADVANCED_FACE('',(#308,#309),#45,.F.);
#345=ADVANCED_FACE('',(#310,#311),#46,.F.);
#346=ADVANCED_FACE('',(#312,#313),#47,.F.);
#347=ADVANCED_FACE('',(#314,#315,#316,#317,#318,#319),#327,.T.);
#348=CLOSED_SHELL('',(#328,#329,#330,#331,#332,#333,#334,#335,#336,#337,
#338,#339,#340,#341,#342,#343,#344,#345,#346,#347));
#349=STYLED_ITEM('',(#350),#357);
#350=PRESENTATION_STYLE_ASSIGNMENT((#351));
#351=SURFACE_STYLE_USAGE(.BOTH.,#352);
#352=SURFACE_SIDE_STYLE('',(#353));
#353=SURFACE_STYLE_FILL_AREA(#354);
#354=FILL_AREA_STYLE('',(#355));
#355=FILL_AREA_STYLE_COLOUR('',#356);
#356=COLOUR_RGB('',0.764705882352941,0.690196078431373,0.568627450980392);
#357=MANIFOLD_SOLID_BREP('Part_15',#348);
#358=SHAPE_DEFINITION_REPRESENTATION(#602,#359);
#359=SHAPE_REPRESENTATION('Part_15',(#360),#597);
#360=AXIS2_PLACEMENT_3D('',#507,#405,#406);
#361=AXIS2_PLACEMENT_3D('',#508,#407,#408);
#362=AXIS2_PLACEMENT_3D('',#517,#413,#414);
#363=AXIS2_PLACEMENT_3D('',#523,#418,#419);
#364=AXIS2_PLACEMENT_3D('',#529,#423,#424);
#365=AXIS2_PLACEMENT_3D('',#530,#425,#426);
#366=AXIS2_PLACEMENT_3D('',#532,#427,#428);
#367=AXIS2_PLACEMENT_3D('',#534,#429,#430);
#368=AXIS2_PLACEMENT_3D('',#535,#431,#432);
#369=AXIS2_PLACEMENT_3D('',#537,#433,#434);
#370=AXIS2_PLACEMENT_3D('',#539,#435,#436);
#371=AXIS2_PLACEMENT_3D('',#540,#437,#438);
#372=AXIS2_PLACEMENT_3D('',#542,#439,#440);
#373=AXIS2_PLACEMENT_3D('',#544,#441,#442);
#374=AXIS2_PLACEMENT_3D('',#545,#443,#444);
#375=AXIS2_PLACEMENT_3D('',#547,#445,#446);
#376=AXIS2_PLACEMENT_3D('',#549,#447,#448);
#377=AXIS2_PLACEMENT_3D('',#550,#449,#450);
#378=AXIS2_PLACEMENT_3D('',#552,#451,#452);
#379=AXIS2_PLACEMENT_3D('',#554,#453,#454);
#380=AXIS2_PLACEMENT_3D('',#555,#455,#456);
#381=AXIS2_PLACEMENT_3D('',#557,#457,#458);
#382=AXIS2_PLACEMENT_3D('',#559,#459,#460);
#383=AXIS2_PLACEMENT_3D('',#562,#463,#464);
#384=AXIS2_PLACEMENT_3D('',#563,#465,#466);
#385=AXIS2_PLACEMENT_3D('',#564,#467,#468);
#386=AXIS2_PLACEMENT_3D('',#566,#469,#470);
#387=AXIS2_PLACEMENT_3D('',#568,#471,#472);
#388=AXIS2_PLACEMENT_3D('',#570,#473,#474);
#389=AXIS2_PLACEMENT_3D('',#572,#475,#476);
#390=AXIS2_PLACEMENT_3D('',#574,#477,#478);
#391=AXIS2_PLACEMENT_3D('',#576,#479,#480);
#392=AXIS2_PLACEMENT_3D('',#577,#481,#482);
#393=AXIS2_PLACEMENT_3D('',#579,#483,#484);
#394=AXIS2_PLACEMENT_3D('',#580,#485,#486);
#395=AXIS2_PLACEMENT_3D('',#581,#487,#488);
#396=AXIS2_PLACEMENT_3D('',#583,#489,#490);
#397=AXIS2_PLACEMENT_3D('',#584,#491,#492);
#398=AXIS2_PLACEMENT_3D('',#586,#493,#494);
#399=AXIS2_PLACEMENT_3D('',#587,#495,#496);
#400=AXIS2_PLACEMENT_3D('',#589,#497,#498);
#401=AXIS2_PLACEMENT_3D('',#590,#499,#500);
#402=AXIS2_PLACEMENT_3D('',#592,#501,#502);
#403=AXIS2_PLACEMENT_3D('',#593,#503,#504);
#404=AXIS2_PLACEMENT_3D('',#595,#505,#506);
#405=DIRECTION('',(0.,0.,1.));
#406=DIRECTION('',(1.,0.,0.));
#407=DIRECTION('',(1.,0.,0.));
#408=DIRECTION('',(0.,-1.,-1.110223024625E-16));
#409=DIRECTION('',(0.,-1.,-1.110223024625E-16));
#410=DIRECTION('',(0.,1.110223024625E-16,-1.));
#411=DIRECTION('',(0.,1.,1.110223024625E-16));
#412=DIRECTION('',(0.,1.110223024625E-16,-1.));
#413=DIRECTION('',(0.,1.,1.110223024625E-16));
#414=DIRECTION('',(1.,0.,0.));
#415=DIRECTION('',(1.,0.,0.));
#416=DIRECTION('',(0.,1.110223024625E-16,-1.));
#417=DIRECTION('',(1.,0.,0.));
#418=DIRECTION('',(-1.,0.,0.));
#419=DIRECTION('',(0.,1.,1.110223024625E-16));
#420=DIRECTION('',(0.,1.,1.110223024625E-16));
#421=DIRECTION('',(0.,1.110223024625E-16,-1.));
#422=DIRECTION('',(0.,1.,1.110223024625E-16));
#423=DIRECTION('',(0.,1.110223024625E-16,-1.));
#424=DIRECTION('',(0.,1.,1.110223024625E-16));
#425=DIRECTION('',(0.,1.110223024625E-16,-1.));
#426=DIRECTION('',(0.,1.,1.110223024625E-16));
#427=DIRECTION('',(0.,1.110223024625E-16,-1.));
#428=DIRECTION('',(0.,1.,1.110223024625E-16));
#429=DIRECTION('',(0.,1.110223024625E-16,-1.));
#430=DIRECTION('',(0.,1.,1.110223024625E-16));
#431=DIRECTION('',(0.,1.110223024625E-16,-1.));
#432=DIRECTION('',(0.,1.,1.110223024625E-16));
#433=DIRECTION('',(0.,1.110223024625E-16,-1.));
#434=DIRECTION('',(0.,1.,1.110223024625E-16));
#435=DIRECTION('',(0.,1.110223024625E-16,-1.));
#436=DIRECTION('',(0.,1.,1.110223024625E-16));
#437=DIRECTION('',(0.,1.110223024625E-16,-1.));
#438=DIRECTION('',(0.,1.,1.110223024625E-16));
#439=DIRECTION('',(0.,1.110223024625E-16,-1.));
#440=DIRECTION('',(0.,1.,1.110223024625E-16));
#441=DIRECTION('',(0.,1.110223024625E-16,-1.));
#442=DIRECTION('',(0.,1.,1.110223024625E-16));
#443=DIRECTION('',(0.,1.110223024625E-16,-1.));
#444=DIRECTION('',(0.,1.,1.110223024625E-16));
#445=DIRECTION('',(0.,1.110223024625E-16,-1.));
#446=DIRECTION('',(0.,1.,1.110223024625E-16));
#447=DIRECTION('',(0.,1.110223024625E-16,-1.));
#448=DIRECTION('',(0.,1.,1.110223024625E-16));
#449=DIRECTION('',(0.,1.110223024625E-16,-1.));
#450=DIRECTION('',(0.,1.,1.110223024625E-16));
#451=DIRECTION('',(0.,1.110223024625E-16,-1.));
#452=DIRECTION('',(0.,1.,1.110223024625E-16));
#453=DIRECTION('',(0.,1.110223024625E-16,-1.));
#454=DIRECTION('',(0.,1.,1.110223024625E-16));
#455=DIRECTION('',(0.,1.110223024625E-16,-1.));
#456=DIRECTION('',(0.,1.,1.110223024625E-16));
#457=DIRECTION('',(0.,1.110223024625E-16,-1.));
#458=DIRECTION('',(0.,1.,1.110223024625E-16));
#459=DIRECTION('',(0.,-1.,-1.110223024625E-16));
#460=DIRECTION('',(-1.,0.,0.));
#461=DIRECTION('',(-1.,0.,0.));
#462=DIRECTION('',(1.,0.,0.));
#463=DIRECTION('',(0.,-1.110223024625E-16,1.));
#464=DIRECTION('',(1.,0.,0.));
#465=DIRECTION('',(0.,-1.110223024625E-16,1.));
#466=DIRECTION('',(1.,0.,0.));
#467=DIRECTION('',(0.,1.110223024625E-16,-1.));
#468=DIRECTION('',(0.,1.,1.110223024625E-16));
#469=DIRECTION('',(0.,1.110223024625E-16,-1.));
#470=DIRECTION('',(0.,1.,1.110223024625E-16));
#471=DIRECTION('',(0.,1.110223024625E-16,-1.));
#472=DIRECTION('',(0.,1.,1.110223024625E-16));
#473=DIRECTION('',(0.,1.110223024625E-16,-1.));
#474=DIRECTION('',(0.,1.,1.110223024625E-16));
#475=DIRECTION('',(0.,1.110223024625E-16,-1.));
#476=DIRECTION('',(0.,1.,1.110223024625E-16));
#477=DIRECTION('',(0.,1.110223024625E-16,-1.));
#478=DIRECTION('',(0.,1.,1.110223024625E-16));
#479=DIRECTION('',(0.,1.110223024625E-16,-1.));
#480=DIRECTION('',(0.,1.,1.110223024625E-16));
#481=DIRECTION('',(0.,1.110223024625E-16,-1.));
#482=DIRECTION('',(0.,1.,1.110223024625E-16));
#483=DIRECTION('',(0.,-1.110223024625E-16,1.));
#484=DIRECTION('',(1.,0.,0.));
#485=DIRECTION('',(0.,1.110223024625E-16,-1.));
#486=DIRECTION('',(0.,1.,1.110223024625E-16));
#487=DIRECTION('',(0.,1.110223024625E-16,-1.));
#488=DIRECTION('',(0.,1.,1.110223024625E-16));
#489=DIRECTION('',(0.,1.110223024625E-16,-1.));
#490=DIRECTION('',(0.,1.,1.110223024625E-16));
#491=DIRECTION('',(0.,1.110223024625E-16,-1.));
#492=DIRECTION('',(0.,1.,1.110223024625E-16));
#493=DIRECTION('',(0.,1.110223024625E-16,-1.));
#494=DIRECTION('',(0.,1.,1.110223024625E-16));
#495=DIRECTION('',(0.,1.110223024625E-16,-1.));
#496=DIRECTION('',(0.,1.,1.110223024625E-16));
#497=DIRECTION('',(0.,1.110223024625E-16,-1.));
#498=DIRECTION('',(0.,1.,1.110223024625E-16));
#499=DIRECTION('',(0.,1.110223024625E-16,-1.));
#500=DIRECTION('',(0.,1.,1.110223024625E-16));
#501=DIRECTION('',(0.,1.110223024625E-16,-1.));
#502=DIRECTION('',(0.,1.,1.110223024625E-16));
#503=DIRECTION('',(0.,1.110223024625E-16,-1.));
#504=DIRECTION('',(0.,1.,1.110223024625E-16));
#505=DIRECTION('',(0.,-1.110223024625E-16,1.));
#506=DIRECTION('',(1.,0.,0.));
#507=CARTESIAN_POINT('',(0.,0.,0.));
#508=CARTESIAN_POINT('',(-8.67361737988404E-19,0.105,0.0120000001));
#509=CARTESIAN_POINT('',(-8.67361737988404E-19,0.105,1.00000011743484E-10));
#510=CARTESIAN_POINT('',(-6.50521303491303E-19,0.21,1.00000022897756E-10));
#511=CARTESIAN_POINT('',(-3.68628738645072E-18,9.992007221625E-19,9.99999997218504E-11));
#512=CARTESIAN_POINT('',(-6.93889390390723E-18,0.,0.0120000001));
#513=CARTESIAN_POINT('',(-6.93889390390723E-18,0.,0.0120000001));
#514=CARTESIAN_POINT('',(-6.93889390390723E-18,0.105,0.0120000001));
#515=CARTESIAN_POINT('',(-3.68628738645072E-18,0.21,0.0120000001));
#516=CARTESIAN_POINT('',(-8.67361737988404E-19,0.21,0.0120000001));
#517=CARTESIAN_POINT('',(0.055,0.,0.0120000001));
#518=CARTESIAN_POINT('',(0.055,1.33226762955E-18,9.99999996004197E-11));
#519=CARTESIAN_POINT('',(0.11,9.992007221625E-19,9.99999997218504E-11));
#520=CARTESIAN_POINT('',(0.11,0.,0.0120000001));
#521=CARTESIAN_POINT('',(0.11,0.,0.0120000001));
#522=CARTESIAN_POINT('',(0.055,0.,0.0120000001));
#523=CARTESIAN_POINT('',(0.11,0.105,0.0120000001));
#524=CARTESIAN_POINT('',(0.11,0.105,1.00000011743484E-10));
#525=CARTESIAN_POINT('',(0.11,0.21,1.00000023210006E-10));
#526=CARTESIAN_POINT('',(0.11,0.21,0.0120000001));
#527=CARTESIAN_POINT('',(0.11,0.21,0.0120000001));
#528=CARTESIAN_POINT('',(0.11,0.105,0.0120000001));
#529=CARTESIAN_POINT('',(0.055,0.16,0.0120000001));
#530=CARTESIAN_POINT('',(0.055,0.16,0.00800000010000002));
#531=CARTESIAN_POINT('',(0.055,0.193,0.00800000010000002));
#532=CARTESIAN_POINT('',(0.055,0.16,0.0120000001));
#533=CARTESIAN_POINT('',(0.055,0.193,0.0120000001));
#534=CARTESIAN_POINT('',(0.055,0.065,0.0120000001));
#535=CARTESIAN_POINT('',(0.055,0.065,0.0105000001));
#536=CARTESIAN_POINT('',(0.055,0.111,0.0105000001));
#537=CARTESIAN_POINT('',(0.055,0.065,0.0120000001));
#538=CARTESIAN_POINT('',(0.055,0.111,0.0120000001));
#539=CARTESIAN_POINT('',(0.090744,0.100744,0.0120000001));
#540=CARTESIAN_POINT('',(0.090744,0.100744,1.00000010008761E-10));
#541=CARTESIAN_POINT('',(0.090744,0.101744,1.00000010119783E-10));
#542=CARTESIAN_POINT('',(0.090744,0.100744,0.0120000001));
#543=CARTESIAN_POINT('',(0.090744,0.101744,0.0120000001));
#544=CARTESIAN_POINT('',(0.019256,0.100744,0.0120000001));
#545=CARTESIAN_POINT('',(0.019256,0.100744,1.00000010008761E-10));
#546=CARTESIAN_POINT('',(0.019256,0.101744,1.00000010119783E-10));
#547=CARTESIAN_POINT('',(0.019256,0.100744,0.0120000001));
#548=CARTESIAN_POINT('',(0.019256,0.101744,0.0120000001));
#549=CARTESIAN_POINT('',(0.019256,0.029256,0.0120000001));
#550=CARTESIAN_POINT('',(0.019256,0.029256,1.00000003069867E-10));
#551=CARTESIAN_POINT('',(0.019256,0.030256,1.00000003180889E-10));
#552=CARTESIAN_POINT('',(0.019256,0.029256,0.0120000001));
#553=CARTESIAN_POINT('',(0.019256,0.030256,0.0120000001));
#554=CARTESIAN_POINT('',(0.090744,0.029256,0.0120000001));
#555=CARTESIAN_POINT('',(0.090744,0.029256,1.00000003069867E-10));
#556=CARTESIAN_POINT('',(0.090744,0.030256,1.00000003180889E-10));
#557=CARTESIAN_POINT('',(0.090744,0.029256,0.0120000001));
#558=CARTESIAN_POINT('',(0.090744,0.030256,0.0120000001));
#559=CARTESIAN_POINT('',(0.055,0.21,0.0120000001));
#560=CARTESIAN_POINT('',(0.055,0.21,1.00000022151825E-10));
#561=CARTESIAN_POINT('',(0.055,0.21,0.0120000001));
#562=CARTESIAN_POINT('',(0.055,0.105,0.0120000001));
#563=CARTESIAN_POINT('',(0.055,0.105,1.00000011743484E-10));
#564=CARTESIAN_POINT('',(0.055,0.065,1.00000006539314E-10));
#565=CARTESIAN_POINT('',(0.055,0.109,1.00000011424295E-10));
#566=CARTESIAN_POINT('',(0.055,0.132,1.00000013478207E-10));
#567=CARTESIAN_POINT('',(0.055,0.133,1.0000001358923E-10));
#568=CARTESIAN_POINT('',(0.027,0.16,1.00000016947654E-10));
#569=CARTESIAN_POINT('',(0.027,0.161,1.00000017058677E-10));
#570=CARTESIAN_POINT('',(0.055,0.188,1.00000020417101E-10));
#571=CARTESIAN_POINT('',(0.055,0.189,1.00000020528124E-10));
#572=CARTESIAN_POINT('',(0.083,0.16,1.00000016947654E-10));
#573=CARTESIAN_POINT('',(0.083,0.161,1.00000017058677E-10));
#574=CARTESIAN_POINT('',(0.055,0.16,1.00000016947654E-10));
#575=CARTESIAN_POINT('',(0.055,0.1825,1.00000019445656E-10));
#576=CARTESIAN_POINT('',(0.055,0.065,0.0105000001));
#577=CARTESIAN_POINT('',(0.055,0.065,0.0105000001));
#578=CARTESIAN_POINT('',(0.055,0.109,0.0105000001));
#579=CARTESIAN_POINT('',(0.055,0.105,0.0105000001));
#580=CARTESIAN_POINT('',(0.055,0.16,0.00800000010000002));
#581=CARTESIAN_POINT('',(0.055,0.16,0.00800000010000002));
#582=CARTESIAN_POINT('',(0.055,0.1825,0.00800000010000002));
#583=CARTESIAN_POINT('',(0.083,0.16,0.00800000010000002));
#584=CARTESIAN_POINT('',(0.083,0.16,0.00800000010000002));
#585=CARTESIAN_POINT('',(0.083,0.161,0.00800000010000002));
#586=CARTESIAN_POINT('',(0.055,0.188,0.00800000010000002));
#587=CARTESIAN_POINT('',(0.055,0.188,0.00800000010000002));
#588=CARTESIAN_POINT('',(0.055,0.189,0.00800000010000002));
#589=CARTESIAN_POINT('',(0.027,0.16,0.00800000010000002));
#590=CARTESIAN_POINT('',(0.027,0.16,0.00800000010000002));
#591=CARTESIAN_POINT('',(0.027,0.161,0.00800000010000002));
#592=CARTESIAN_POINT('',(0.055,0.132,0.00800000010000001));
#593=CARTESIAN_POINT('',(0.055,0.132,0.00800000010000001));
#594=CARTESIAN_POINT('',(0.055,0.133,0.00800000010000001));
#595=CARTESIAN_POINT('',(0.055,0.105,0.00800000010000001));
#596=MECHANICAL_DESIGN_GEOMETRIC_PRESENTATION_REPRESENTATION('',(#349),
#597);
#597=(
GEOMETRIC_REPRESENTATION_CONTEXT(3)
GLOBAL_UNCERTAINTY_ASSIGNED_CONTEXT((#598))
GLOBAL_UNIT_ASSIGNED_CONTEXT((#601,#600,#599))
REPRESENTATION_CONTEXT('Part_15','TOP_LEVEL_ASSEMBLY_PART')
);
#598=UNCERTAINTY_MEASURE_WITH_UNIT(LENGTH_MEASURE(1.E-8),#601,
'DISTANCE_ACCURACY_VALUE','Maximum Tolerance applied to model');
#599=(
NAMED_UNIT(*)
SI_UNIT($,.STERADIAN.)
SOLID_ANGLE_UNIT()
);
#600=(
NAMED_UNIT(*)
PLANE_ANGLE_UNIT()
SI_UNIT($,.RADIAN.)
);
#601=(
LENGTH_UNIT()
NAMED_UNIT(*)
SI_UNIT($,.METRE.)
);
#602=PRODUCT_DEFINITION_SHAPE('','',#603);
#603=PRODUCT_DEFINITION('','',#605,#604);
#604=PRODUCT_DEFINITION_CONTEXT('',#611,'design');
#605=PRODUCT_DEFINITION_FORMATION_WITH_SPECIFIED_SOURCE('','',#607,
 .NOT_KNOWN.);
#606=PRODUCT_RELATED_PRODUCT_CATEGORY('','',(#607));
#607=PRODUCT('Part_15','Part_15','Part_15',(#609));
#608=PRODUCT_CATEGORY('','');
#609=PRODUCT_CONTEXT('',#611,'mechanical');
#610=APPLICATION_PROTOCOL_DEFINITION('international standard',
'ap242_managed_model_based_3d_engineering',2020,#611);
#611=APPLICATION_CONTEXT('managed model based 3d engineering');
ENDSEC;
END-ISO-10303-21;
